<svg width="20" height="27" viewBox="0 0 20 27" fill="none" xmlns="http://www.w3.org/2000/svg">
  <path d="M17.2937 24.8248L9.75346 26.8551L2.21313 24.8248L0.473145 5.9743H19.0339L17.2937 24.8248Z" fill="#2062AF"/>
  <path d="M9.7533 7.50116V25.2358L9.77035 25.2404L15.8723 23.5973L17.2808 7.50116H9.7533V7.50116Z" fill="#3C9CD7"/>
  <path d="M5.47405 3.2048V2.08282H7.11102V0.855103H4.24634V4.32512H7.11102V3.2048H5.47405ZM10.0557 2.08282H11.2002V0.855103H8.33525V2.08282C8.71854 2.46611 8.91843 2.64956 9.47278 3.20391C9.14872 3.20391 8.33525 3.20507 8.33525 3.20502V4.32512H11.2002V3.2048L10.0557 2.08282ZM14.1163 2.08282H15.2607V0.855103H12.3956V2.08282C12.7789 2.46611 12.9789 2.64956 13.5333 3.20391C13.2093 3.20391 12.3956 3.20507 12.3956 3.20502V4.32512H15.2608V3.2048L14.1163 2.08282V2.08282Z" fill="black"/>
  <path d="M9.74663 12.2146L4.34985 14.4622L4.52882 16.6875L9.74663 14.4565L15.297 12.0835L15.5271 9.80707L9.74663 12.2146Z" fill="white"/>
  <path d="M4.34985 14.4622L4.52882 16.6875L9.74663 14.4565V12.2145L4.34985 14.4622V14.4622Z" fill="url(#paint0_linear_107_132)"/>
  <path d="M15.5272 9.80713L9.7467 12.2146V14.4565L15.2971 12.0835L15.5272 9.80713Z" fill="url(#paint1_linear_107_132)"/>
  <path d="M4.35815 14.4622L4.53718 16.6875L12.5432 16.713L12.3641 19.68L9.72969 20.4217L7.19721 19.7823L7.04376 17.9406H4.69063L4.99759 21.496L9.75527 22.9027L14.4871 21.5215L15.1011 14.4622H4.35815V14.4622Z" fill="url(#paint2_linear_107_132)"/>
  <path opacity="0.05" d="M9.74663 14.4622H4.34985L4.52882 16.6875L9.74663 16.7041V14.4622ZM9.74663 20.4146L9.72106 20.4218L7.18891 19.7823L7.03546 17.9407H4.68238L4.98929 21.496L9.74663 22.9028V20.4146Z" fill="black"/>
  <path d="M3.86389 9.80713H15.5272L15.2971 12.0835H4.14522L3.86389 9.80713V9.80713Z" fill="url(#paint3_linear_107_132)"/>
  <path opacity="0.05" d="M9.74671 9.80713H3.86389L4.14522 12.0835H9.74671V9.80713V9.80713Z" fill="black"/>
  <defs>
  <linearGradient id="paint0_linear_107_132" x1="7.04824" y1="16.6875" x2="7.04824" y2="12.2146" gradientUnits="userSpaceOnUse">
  <stop offset="0.387" stop-color="#D1D3D4" stop-opacity="0"/>
  <stop offset="1" stop-color="#D1D3D4"/>
  </linearGradient>
  <linearGradient id="paint1_linear_107_132" x1="12.6369" y1="14.4566" x2="12.6369" y2="9.80718" gradientUnits="userSpaceOnUse">
  <stop offset="0.387" stop-color="#D1D3D4" stop-opacity="0"/>
  <stop offset="1" stop-color="#D1D3D4"/>
  </linearGradient>
  <linearGradient id="paint2_linear_107_132" x1="4.35815" y1="18.6825" x2="15.101" y2="18.6825" gradientUnits="userSpaceOnUse">
  <stop stop-color="#E8E7E5"/>
  <stop offset="1" stop-color="white"/>
  </linearGradient>
  <linearGradient id="paint3_linear_107_132" x1="3.86389" y1="10.9453" x2="15.5272" y2="10.9453" gradientUnits="userSpaceOnUse">
  <stop stop-color="#E8E7E5"/>
  <stop offset="1" stop-color="white"/>
  </linearGradient>
  </defs>
</svg>
