<svg width="32" height="7" viewBox="0 0 32 7" fill="none" xmlns="http://www.w3.org/2000/svg">
  <path d="M9.92491 6.93678V0.135696H10.3047V1.20551C10.3495 1.15808 10.3909 1.10769 10.4286 1.05471C10.7458 0.415472 11.4148 0.0120399 12.1451 0.0200082C13.0109 -0.00507715 13.7145 0.306277 14.128 1.05471C14.3911 1.51966 14.5359 2.03902 14.5503 2.56941C14.5647 3.09981 14.4482 3.62585 14.2106 4.10361C13.8254 4.94235 12.8739 5.35935 11.8553 5.20619C11.5383 5.18001 11.233 5.07711 10.9675 4.90688C10.7019 4.73666 10.4845 4.50453 10.335 4.23169V6.93649L9.92491 6.93678ZM10.3047 2.54153L10.3897 3.34013C10.5398 4.24911 11.093 4.78623 11.9616 4.88716C12.3695 4.9523 12.788 4.87802 13.1458 4.67696C13.5036 4.47591 13.7786 4.16053 13.9239 3.78458C14.2617 3.00251 14.2368 2.11714 13.857 1.35337C13.702 1.01636 13.4383 0.737531 13.1057 0.559008C12.7731 0.380485 12.3898 0.311973 12.0135 0.363826C11.6604 0.388781 11.3241 0.519953 11.0512 0.739121C10.7783 0.958289 10.5825 1.25457 10.4909 1.58681C10.41 1.90122 10.3478 2.21989 10.3047 2.54123V2.54153ZM22.3042 3.46585C22.2466 3.94471 22.012 4.38695 21.6439 4.71033C21.2758 5.0337 20.7993 5.21621 20.3031 5.22389C18.7106 5.30181 17.9632 4.27449 17.8444 3.08898C17.7618 2.44519 17.8694 1.79186 18.1546 1.20522C18.3531 0.802786 18.6783 0.472194 19.0832 0.261331C19.488 0.0504694 19.9515 -0.0297117 20.4064 0.0324033C20.8388 0.0681111 21.2488 0.235031 21.5782 0.509541C21.9076 0.78405 22.1398 1.15225 22.242 1.56202C22.3229 1.9353 22.3824 2.31265 22.4203 2.69234H18.2378C18.1604 3.76717 18.7549 4.63129 19.5977 4.83964C20.6473 5.0905 21.5444 4.6487 21.8701 3.67922C21.9424 3.43044 22.0743 3.39532 22.307 3.46585H22.3042ZM18.2348 2.34822H21.9758C21.9524 1.20315 21.2184 0.370908 20.2229 0.361464C19.0988 0.343757 18.2837 1.14265 18.2348 2.34822V2.34822ZM23.0774 3.49094H23.4441C23.4576 3.75337 23.5453 4.0071 23.6976 4.22423C23.85 4.44135 24.061 4.61345 24.3075 4.7216C24.617 4.85692 24.954 4.92268 25.2933 4.91399C25.6326 4.90531 25.9656 4.82239 26.2673 4.67142C26.4318 4.59947 26.5696 4.4802 26.6621 4.32973C26.7546 4.17926 26.7973 4.00483 26.7844 3.83003C26.7939 3.66145 26.7465 3.49446 26.6494 3.3544C26.5524 3.21433 26.411 3.10882 26.2467 3.05386C25.8432 2.90807 25.4143 2.8278 25.0032 2.69972C24.5755 2.58142 24.1572 2.43287 23.7518 2.25526C23.0896 1.94125 23.0485 0.718267 23.7983 0.331067C24.1822 0.120618 24.6143 0.00690739 25.0551 0.000308947C25.4958 -0.0062895 25.9313 0.0944346 26.3217 0.293291C26.806 0.552999 27.0736 1.07743 26.994 1.60953H26.6796C26.6796 1.59478 26.651 1.58179 26.651 1.56674C26.6121 0.59284 25.7694 0.288274 24.8647 0.373859C24.5913 0.403371 24.3321 0.483645 24.0891 0.602284C23.943 0.667098 23.8212 0.774423 23.7407 0.909407C23.6601 1.04439 23.6247 1.20036 23.6394 1.35573C23.6397 1.51122 23.6896 1.66279 23.7822 1.78963C23.8748 1.91646 24.0056 2.01232 24.1565 2.06402C24.5515 2.2048 24.9707 2.2951 25.3793 2.40548L26.3667 2.65633C26.5911 2.72789 26.7879 2.86393 26.931 3.04647C27.0741 3.22901 27.1568 3.44945 27.1681 3.67863C27.2471 4.19362 26.9767 4.69976 26.4985 4.93438C25.6351 5.40893 24.213 5.28351 23.5796 4.68352C23.2554 4.36686 23.0747 3.93687 23.0783 3.49064L23.0774 3.49094ZM31.8208 1.60983H31.4769C31.4769 1.56468 31.4587 1.52129 31.4535 1.48676C31.448 1.23634 31.3541 0.995372 31.1874 0.804247C31.0208 0.613123 30.7915 0.483466 30.5382 0.437016C30.0602 0.303848 29.5504 0.327709 29.0878 0.504893C28.9049 0.555742 28.7439 0.662736 28.6288 0.809876C28.5137 0.957017 28.4507 1.1364 28.4492 1.3212C28.4427 1.50266 28.5008 1.68074 28.6139 1.82535C28.7269 1.96995 28.8879 2.07219 29.0696 2.11478L30.6415 2.50671C30.8115 2.54631 30.9789 2.59578 31.1427 2.65486C31.644 2.83193 31.9843 3.28406 31.9995 3.80082C32.007 4.05376 31.9356 4.303 31.7946 4.51579C31.6536 4.72858 31.4497 4.89497 31.2096 4.99311C30.8447 5.15409 30.4493 5.23927 30.0486 5.24319C29.648 5.2471 29.2508 5.16966 28.8828 5.01583C28.58 4.88903 28.3246 4.67518 28.1508 4.40308C27.977 4.13097 27.8931 3.81367 27.9106 3.49389H28.2466C28.373 4.08561 28.7913 4.57846 29.3652 4.81161C29.9391 5.04475 30.5944 4.9875 31.1163 4.65932C31.2729 4.58022 31.4029 4.45917 31.4909 4.31053C31.5788 4.16188 31.6211 3.99186 31.6127 3.82059C31.6205 3.65189 31.5715 3.48532 31.473 3.34616C31.3745 3.20699 31.232 3.10282 31.0671 3.04943C30.6636 2.90364 30.2347 2.82603 29.8236 2.69529C29.3935 2.57881 28.9727 2.43194 28.5647 2.25585C27.9182 1.94686 27.8665 0.733908 28.6036 0.347003C28.9922 0.127723 29.4327 0.00991952 29.8822 0.00505814C30.3316 0.000196752 30.7747 0.108443 31.1683 0.319262C31.3934 0.449781 31.5746 0.641074 31.6898 0.869846C31.805 1.09862 31.8493 1.355 31.8172 1.60776L31.8208 1.60983ZM9.29999 5.10112C9.16462 5.15085 9.01519 5.15072 8.87991 5.10075C8.74463 5.05078 8.63286 4.95444 8.5657 4.8299L7.22897 3.03409L7.03514 2.78323L5.48393 4.83256C5.42071 4.95174 5.31498 5.04449 5.18651 5.09348C5.05803 5.14246 4.91559 5.14434 4.78579 5.09876L6.7842 2.49431L4.92493 0.141008C5.20079 0.0442082 5.50823 0.149272 5.66165 0.391862L7.04699 2.20981L8.44053 0.398945C8.50422 0.281806 8.61002 0.191495 8.73779 0.145189C8.86556 0.0988821 9.00639 0.0998101 9.1335 0.147796L8.41197 1.07773L7.43464 2.3134C7.40752 2.33693 7.38581 2.36576 7.37095 2.39801C7.35609 2.43025 7.34841 2.46518 7.34841 2.50051C7.34841 2.53584 7.35609 2.57076 7.37095 2.60301C7.38581 2.63525 7.40752 2.66408 7.43464 2.68762L9.29604 5.10112H9.29999ZM17.7852 0.115923V0.470069C17.5237 0.453408 17.2615 0.490194 17.0156 0.578052C16.7696 0.665911 16.5454 0.80289 16.3573 0.980148C16.1692 1.15741 16.0215 1.371 15.9236 1.60716C15.8258 1.84331 15.78 2.09677 15.7892 2.35118C15.7892 3.1783 15.7892 4.00543 15.7892 4.83256V5.11381H15.4195V0.138057H15.784V1.1577C16.2312 0.413996 16.9215 0.138057 17.7876 0.117989L17.7852 0.115923ZM0.000607705 2.46185L0.163445 1.68066C0.610642 0.135991 2.43345 -0.506784 3.68755 0.450001C4.42184 1.01014 4.60503 1.80372 4.56918 2.69794H0.43231C0.365474 4.29514 1.55182 5.2596 3.06931 4.76734C3.56937 4.59027 3.94578 4.18654 4.06973 3.68483C4.14994 3.43398 4.28239 3.39089 4.52483 3.46349C4.48439 3.76927 4.37312 4.06217 4.19936 4.32016C4.02561 4.57815 3.79391 4.79451 3.52167 4.95297C3.07191 5.19191 2.55589 5.28659 2.0474 5.22346C1.53891 5.16033 1.06399 4.94262 0.690542 4.60148C0.321119 4.19805 0.0981281 3.68808 0.0546844 3.14948C0.0546844 3.06094 0.0243042 2.97831 0.00303809 2.89863C0.00101274 2.74969 0 2.6041 0 2.46185H0.000607705ZM0.437475 2.35383H4.17849C4.1551 1.19607 3.40289 0.374745 2.39973 0.367072C1.28296 0.352316 0.483957 1.15564 0.434741 2.34882L0.437475 2.35383Z" fill="white"/>
</svg>
