<svg width="19" height="28" viewBox="0 0 19 28" fill="none" xmlns="http://www.w3.org/2000/svg">
  <path d="M4.66856 28C7.24456 28 9.33523 25.9094 9.33523 23.3334V18.6667H4.66856C2.09256 18.6667 0.00189209 20.7574 0.00189209 23.3334C0.00189209 25.9094 2.09256 28 4.66856 28Z" fill="#0ACF83"/>
  <path d="M0.00189209 14C0.00189209 11.424 2.09256 9.33331 4.66856 9.33331H9.33523V18.6666H4.66856C2.09256 18.6666 0.00189209 16.576 0.00189209 14Z" fill="#A259FF"/>
  <path d="M0.00189209 4.66667C0.00189209 2.09067 2.09256 0 4.66856 0H9.33523V9.33333H4.66856C2.09256 9.33333 0.00189209 7.24267 0.00189209 4.66667Z" fill="#F24E1E"/>
  <path d="M9.33521 0H14.0019C16.5779 0 18.6685 2.09067 18.6685 4.66667C18.6685 7.24267 16.5779 9.33333 14.0019 9.33333H9.33521V0Z" fill="#FF7262"/>
  <path d="M18.6685 14C18.6685 16.576 16.5779 18.6666 14.0019 18.6666C11.4259 18.6666 9.33521 16.576 9.33521 14C9.33521 11.424 11.4259 9.33331 14.0019 9.33331C16.5779 9.33331 18.6685 11.424 18.6685 14Z" fill="#1ABCFE"/>
</svg>
