<svg width="19" height="26" viewBox="0 0 19 26" fill="none" xmlns="http://www.w3.org/2000/svg">
  <path d="M1.71643 0H2.8844V1.15781H3.96096V0H5.12893V3.50391H3.96096V2.33594H2.89456V3.50391H1.71643M6.67268 1.16797H5.64182V0H8.87659V1.16797H7.84065V3.50391H6.67268M9.38948 0H10.6133L11.3649 1.23398L12.1164 0H13.3403V3.50391H12.1723V1.76719L11.3547 3.02656L10.5371 1.76719V3.50391H9.38948M13.9192 0H15.0871V2.34609H16.7426V3.50391H13.9192" fill="black"/>
  <path d="M1.67578 23.918L0 5.10858H18.4234L16.7477 23.9078L9.19649 26" fill="#E44D26"/>
  <path d="M9.21179 24.4004V6.65234H16.7427L15.3055 22.6992" fill="#F16529"/>
  <path d="M3.42273 8.95276H9.21179V11.2582H5.95164L6.16492 13.6196H9.21179V15.9199H4.05242M4.15398 17.0778H6.4696L6.6321 18.9211L9.21179 19.6117V22.0188L4.47898 20.6985" fill="#EBEBEB"/>
  <path d="M14.9804 8.95276H9.20154V11.2582H14.7672M14.559 13.6196H9.20154V15.925H12.0453L11.7761 18.9211L9.20154 19.6117V22.0086L13.9242 20.6985" fill="white"/>
</svg>
