<svg width="29" height="28" viewBox="0 0 29 28" fill="none" xmlns="http://www.w3.org/2000/svg">
  <path fill-rule="evenodd" clip-rule="evenodd" d="M16.5516 0C16.3484 0 16.1596 0.0435585 15.9854 0.101633C16.3556 0.348456 16.5589 0.675136 16.6605 1.04537C16.6678 1.09619 16.6823 1.13249 16.6896 1.1833C16.6969 1.22686 16.7041 1.27041 16.7041 1.31397C16.7331 1.95281 16.5371 2.03266 16.3992 2.41016C16.1887 2.89655 16.2467 3.41923 16.5008 3.84028C16.5226 3.8911 16.5516 3.94917 16.5879 3.99999C16.3121 2.16333 17.8438 1.88747 18.1269 1.31397C18.1487 0.813066 17.7349 0.479128 17.4083 0.246823C17.0961 0.0580764 16.813 0 16.5516 0V0ZM18.8602 0.413793C18.8311 0.580761 18.8529 0.537204 18.8457 0.624319C18.8384 0.682393 18.8384 0.754991 18.8311 0.813065C18.8166 0.871142 18.8021 0.929217 18.7803 0.987296C18.7658 1.04537 18.744 1.10345 18.7223 1.16152C18.6932 1.2196 18.6714 1.27041 18.6424 1.32849C18.6206 1.35754 18.6061 1.38657 18.5843 1.41561C18.5698 1.43738 18.5553 1.45916 18.5408 1.48094C18.5045 1.53176 18.4682 1.58257 18.4319 1.62613C18.3883 1.66969 18.352 1.7205 18.3012 1.7568C18.3012 1.76407 18.3012 1.76407 18.3012 1.76407C18.2576 1.80037 18.2141 1.84393 18.1633 1.88022C18.0108 1.99637 17.8366 2.08349 17.6769 2.19238C17.6261 2.22868 17.5752 2.25772 17.5317 2.30128C17.4809 2.33757 17.4373 2.37387 17.3938 2.41743C17.3429 2.46098 17.3066 2.50454 17.2631 2.55536C17.2268 2.59892 17.1832 2.64973 17.1542 2.70055C17.1179 2.75136 17.0816 2.80218 17.0526 2.853C17.0235 2.91107 17.0017 2.96189 16.9727 3.01997C16.9509 3.07804 16.9291 3.12886 16.9146 3.18693C16.8929 3.25227 16.8783 3.31035 16.8638 3.36843C16.8565 3.39748 16.8565 3.43376 16.8493 3.4628C16.842 3.49185 16.842 3.52087 16.8348 3.54991C16.8348 3.60799 16.8275 3.67332 16.8275 3.7314C16.8275 3.77496 16.8275 3.81851 16.8348 3.86207C16.8348 3.92015 16.8421 3.97822 16.8566 4.04356C16.8638 4.10163 16.8784 4.15971 16.8929 4.21779C16.9147 4.27586 16.9292 4.33394 16.951 4.39201C16.9655 4.42831 16.9872 4.46461 17.0018 4.49365L15.3321 3.84755C15.049 3.7677 14.7731 3.6951 14.49 3.62977C14.3375 3.59347 14.1851 3.55717 14.0326 3.52087C13.5971 3.43376 13.1542 3.36843 12.7114 3.32487C12.6969 3.32487 12.6896 3.3176 12.6751 3.3176C12.2395 3.27404 11.8112 3.25226 11.3756 3.25226C11.0562 3.25226 10.7368 3.26677 10.4246 3.28856C9.98182 3.31761 9.53899 3.37568 9.09616 3.44827C8.98727 3.46278 8.87837 3.48457 8.76948 3.50635C8.54443 3.5499 8.32665 3.60072 8.11612 3.65154C8.00723 3.68059 7.89834 3.70961 7.78944 3.73865C7.68055 3.78221 7.57892 3.83302 7.47729 3.87658C7.39743 3.91288 7.31758 3.94918 7.23772 3.98547C7.22322 3.99274 7.20867 3.99274 7.20143 3.99998C7.12883 4.03628 7.06349 4.06532 6.99816 4.10162C6.97638 4.10889 6.96186 4.11612 6.94734 4.12339C6.86749 4.15969 6.78763 4.20325 6.7223 4.23955C6.67148 4.26132 6.62067 4.29036 6.57711 4.31214C6.55533 4.32665 6.52629 4.34119 6.51177 4.34844C6.44644 4.38474 6.3811 4.42103 6.32302 4.45733C6.25769 4.49363 6.19961 4.52993 6.14879 4.56622C6.09798 4.60252 6.04716 4.63156 6.0036 4.66785C5.99633 4.67512 5.9891 4.67512 5.98183 4.68236C5.93827 4.71141 5.88745 4.7477 5.8439 4.784C5.8439 4.784 5.83662 4.79127 5.82939 4.79851C5.79309 4.82756 5.75679 4.85658 5.7205 4.88562C5.70599 4.89289 5.69145 4.9074 5.67694 4.91467C5.64064 4.94372 5.60434 4.98 5.56805 5.00904C5.56078 5.02355 5.54627 5.03082 5.539 5.03809C5.49544 5.08165 5.45188 5.11795 5.40833 5.1615C5.40105 5.1615 5.40105 5.16877 5.39382 5.17601C5.35026 5.21231 5.3067 5.25587 5.26315 5.29942C5.25587 5.30669 5.25587 5.31393 5.24864 5.31393C5.21234 5.35023 5.17605 5.38653 5.13974 5.43008C5.12524 5.44459 5.10345 5.45913 5.08893 5.47364C5.05263 5.5172 5.00908 5.56075 4.96552 5.60431C4.95825 5.61882 4.94374 5.62609 4.93647 5.64061C4.87839 5.69869 4.82758 5.75676 4.7695 5.81484C4.76223 5.82211 4.75499 5.82934 4.74772 5.83662C4.63157 5.96003 4.50816 6.08344 4.37749 6.19233C4.24681 6.30848 4.10889 6.41738 3.97095 6.51175C3.82576 6.61339 3.68783 6.7005 3.53538 6.78761C3.39019 6.86746 3.23774 6.94006 3.07803 7.0054C2.92558 7.07073 2.76587 7.12881 2.60617 7.17962C2.30126 7.24496 1.9891 7.36837 1.7205 7.39015C1.66243 7.39015 1.59709 7.40466 1.53902 7.41193C1.47368 7.42644 1.41561 7.44098 1.35753 7.45549C1.29945 7.47726 1.24138 7.49904 1.1833 7.52082C1.12522 7.5426 1.06715 7.57164 1.00907 7.60068C0.958256 7.63697 0.90018 7.66601 0.849362 7.70231C0.798547 7.73861 0.747729 7.78216 0.704172 7.82572C0.653357 7.86202 0.602539 7.91284 0.558982 7.95639C0.515424 8.00721 0.471867 8.05077 0.43557 8.10158C0.399273 8.15966 0.355716 8.21048 0.326677 8.26855C0.29038 8.31937 0.254083 8.37744 0.225044 8.43552C0.195994 8.50086 0.166968 8.55893 0.14519 8.62427C0.123411 8.68234 0.101632 8.74768 0.0798537 8.81302C0.065346 8.87109 0.0508041 8.92917 0.043557 8.98724C0.043557 8.99452 0.0362863 9.00175 0.0362863 9.00902C0.0217785 9.07436 0.0217785 9.16147 0.0145076 9.20503C0.00723687 9.25585 0 9.2994 0 9.35022C0 9.37927 2.25994e-08 9.41556 0.0072707 9.44459C0.0145414 9.49541 0.0217782 9.53897 0.0363203 9.58253C0.050828 9.62608 0.06537 9.66964 0.087135 9.7132C0.087135 9.72046 0.087135 9.72047 0.087135 9.72047C0.108914 9.76403 0.137953 9.80758 0.166989 9.85114C0.196039 9.8947 0.225068 9.93825 0.261365 9.98181C0.297661 10.0181 0.341219 10.0617 0.384776 10.098C0.428333 10.1415 0.471891 10.1778 0.522705 10.2141C0.696935 10.3666 0.740492 10.4174 0.965537 10.5335C1.00183 10.5553 1.03813 10.5698 1.08169 10.5916C1.08896 10.5916 1.0962 10.5989 1.10347 10.5989C1.10347 10.6134 1.10347 10.6207 1.11074 10.6352C1.11801 10.6933 1.13252 10.7513 1.14704 10.8094C1.16155 10.8747 1.18334 10.9328 1.20512 10.9836C1.2269 11.0272 1.24141 11.0707 1.26319 11.1143C1.27046 11.1288 1.2777 11.1434 1.28497 11.1506C1.31402 11.2087 1.34305 11.2595 1.37208 11.3103C1.40838 11.3611 1.44468 11.4119 1.48098 11.4628C1.51727 11.5063 1.56083 11.5571 1.60439 11.6007C1.64795 11.6443 1.6915 11.6805 1.74232 11.7241C1.74232 11.7241 1.74959 11.7314 1.75683 11.7314C1.80039 11.7677 1.84394 11.804 1.8875 11.833C1.93832 11.8693 1.98913 11.8983 2.04721 11.9274C2.09803 11.9564 2.1561 11.9855 2.21418 12.0072C2.25774 12.029 2.30855 12.0435 2.35937 12.0581C2.36664 12.0653 2.37388 12.0653 2.38842 12.0726C2.41747 12.0799 2.45375 12.0871 2.48279 12.0943C2.46101 12.4864 2.45374 12.8566 2.51184 12.9873C2.57717 13.1325 2.89659 12.6896 3.21601 12.1815C3.17245 12.6824 3.14341 13.2704 3.21601 13.4446C3.29587 13.6261 3.73144 13.0599 4.10893 12.4355C9.25592 11.245 13.9528 14.8021 14.4465 19.8257C14.3521 19.0417 13.3866 18.6061 12.9438 18.715C12.726 19.2522 12.3557 19.9419 11.7605 20.3702C11.8113 19.8911 11.7895 19.3974 11.6879 18.9183C11.5282 19.5862 11.216 20.2105 10.7877 20.7477C10.098 20.7985 9.40837 20.4646 9.0454 19.9637C9.01635 19.9419 9.0091 19.8983 8.98732 19.8693C8.96554 19.8185 8.94376 19.7677 8.92925 19.7168C8.90747 19.666 8.89295 19.6152 8.88569 19.5644C8.87842 19.5136 8.87842 19.4628 8.87842 19.4047C8.87842 19.3684 8.87842 19.3321 8.87842 19.2958C8.88569 19.245 8.9002 19.1941 8.91471 19.1433C8.92922 19.0925 8.94376 19.0417 8.96553 18.9909C8.99458 18.9401 9.01635 18.8893 9.05265 18.8384C9.17606 18.49 9.17606 18.2069 8.95101 18.0399C8.90746 18.0108 8.8639 17.9891 8.81308 17.9673C8.78403 17.96 8.74774 17.9455 8.71871 17.9382C8.69693 17.931 8.68241 17.9237 8.66063 17.9165C8.60982 17.902 8.559 17.8874 8.50818 17.8802C8.45736 17.8657 8.40655 17.8584 8.35573 17.8584C8.30492 17.8511 8.24684 17.8439 8.19602 17.8439C8.15973 17.8439 8.12343 17.8511 8.08713 17.8511C8.02905 17.8511 7.97824 17.8584 7.92742 17.8729C7.8766 17.8802 7.82579 17.8874 7.77497 17.902C7.72416 17.9165 7.67334 17.931 7.62252 17.9528C7.5717 17.9746 7.52815 17.9964 7.47733 18.0181C7.43378 18.0399 7.39022 18.0689 7.3394 18.0907C5.64793 19.1942 6.65701 21.7786 7.81127 22.5263C7.3757 22.6061 6.93287 22.7005 6.80946 22.7949C6.80219 22.8022 6.79495 22.8094 6.79495 22.8094C7.10711 22.9981 7.43379 23.1579 7.77498 23.2958C8.23959 23.4482 8.73324 23.5862 8.95102 23.6442V23.6515C9.55356 23.7749 10.1634 23.8185 10.7804 23.7822C13.9964 23.5571 16.6316 21.1107 17.1107 17.8875C17.1252 17.9528 17.1398 18.0109 17.1543 18.0762C17.1761 18.2069 17.2051 18.3448 17.2196 18.4827C17.2196 18.4827 17.2196 18.4827 17.2196 18.49C17.2341 18.5553 17.2414 18.6207 17.2487 18.6788C17.2487 18.6933 17.2487 18.7005 17.2487 18.7078C17.2559 18.7731 17.2632 18.8385 17.2632 18.8966C17.2704 18.9764 17.2777 19.0563 17.2777 19.1361C17.2777 19.1724 17.2777 19.2087 17.2777 19.2523C17.2777 19.2886 17.2849 19.3321 17.2849 19.3684C17.2849 19.412 17.2777 19.4555 17.2777 19.4991C17.2777 19.5354 17.2777 19.5717 17.2777 19.6007C17.2777 19.6515 17.2704 19.6951 17.2704 19.7459C17.2704 19.775 17.2704 19.804 17.2631 19.8403C17.2631 19.8911 17.2559 19.9419 17.2559 20C17.2486 20.0218 17.2486 20.0436 17.2486 20.0653C17.2413 20.1234 17.2341 20.1742 17.2268 20.2323C17.2268 20.2541 17.2268 20.2759 17.2195 20.2976C17.2123 20.3702 17.1978 20.4356 17.1905 20.5082V20.5155V20.5227C17.176 20.5881 17.1614 20.6606 17.1469 20.726C17.1469 20.7333 17.1469 20.7405 17.1469 20.7478C17.1324 20.8131 17.1179 20.8784 17.1034 20.9438C17.1034 20.951 17.0961 20.9655 17.0961 20.9728C17.0816 21.0382 17.067 21.1035 17.0453 21.1688C17.0453 21.1761 17.0453 21.1833 17.0453 21.1906C17.0235 21.2632 17.0017 21.3285 16.9872 21.3939C16.9799 21.4011 16.9799 21.4084 16.9799 21.4084C16.9582 21.481 16.9364 21.5536 16.9146 21.6262C16.8856 21.6988 16.8638 21.7641 16.8348 21.8367C16.8057 21.9093 16.7839 21.9819 16.7549 22.0472C16.7258 22.1198 16.6968 22.1851 16.6678 22.2577H16.6605C16.6314 22.3231 16.6024 22.3957 16.5661 22.461C16.5589 22.4828 16.5516 22.4973 16.5443 22.5118C16.5371 22.5191 16.5371 22.5263 16.5298 22.5336C16.058 23.4846 15.3611 24.3194 14.4899 24.9728C14.4318 25.0091 14.3738 25.0527 14.3157 25.0962C14.3012 25.1107 14.2794 25.118 14.2649 25.1325C14.2141 25.1688 14.1632 25.2051 14.1052 25.2414L14.1269 25.285H14.1342C14.2358 25.2705 14.3375 25.2559 14.4391 25.2414H14.4464C14.6351 25.2124 14.8239 25.1761 15.0126 25.1398C15.0634 25.1325 15.1215 25.118 15.1723 25.1035C15.2086 25.0962 15.2377 25.089 15.274 25.0817C15.3248 25.0744 15.3756 25.0599 15.4264 25.0526C15.47 25.0381 15.5135 25.0309 15.5571 25.0163C16.283 24.8421 16.9872 24.6025 17.6623 24.3194C16.5081 25.8947 14.9618 27.1652 13.1542 28C13.989 27.9419 14.8239 27.804 15.6297 27.5717C18.5553 26.7078 21.0162 24.7405 22.4899 22.0908C22.1923 23.7677 21.5244 25.3648 20.5371 26.7586C21.2413 26.294 21.8874 25.7568 22.4754 25.147C24.1015 23.4483 25.1687 21.2922 25.5317 18.9764C25.7785 20.1234 25.8511 21.3067 25.7422 22.4755C30.9835 15.1652 26.1778 7.58625 24.1669 5.58989C24.1596 5.57538 24.1524 5.56811 24.1524 5.55359C24.1451 5.56086 24.1451 5.56086 24.1451 5.5681C24.1451 5.56083 24.1451 5.56083 24.1378 5.55359C24.1378 5.64071 24.1305 5.72782 24.1233 5.81493C24.1015 5.9819 24.0797 6.14161 24.0507 6.30132C24.0144 6.46103 23.9709 6.62073 23.9273 6.78045C23.8765 6.93289 23.8184 7.0926 23.7531 7.24506C23.6877 7.39024 23.6151 7.54269 23.5353 7.68789C23.4554 7.82582 23.3683 7.97101 23.2739 8.10168C23.1796 8.23961 23.0779 8.37028 22.9763 8.49369C22.8674 8.62436 22.7513 8.74052 22.6351 8.85667C22.5625 8.922 22.4972 8.98008 22.4246 9.03815C22.3665 9.08897 22.3157 9.13253 22.2576 9.18334C22.1269 9.28498 21.9963 9.37935 21.8511 9.46647C21.7131 9.55358 21.568 9.64069 21.4228 9.71329C21.2703 9.78589 21.1179 9.85122 20.9654 9.91656C20.813 9.97463 20.6533 10.0254 20.4935 10.069C20.3338 10.1126 20.1669 10.1489 20.0072 10.1779C19.8402 10.2069 19.6732 10.2215 19.5135 10.236C19.3974 10.2432 19.2812 10.2505 19.1651 10.2505C18.9981 10.2505 18.8311 10.236 18.6714 10.2214C18.5044 10.2069 18.3375 10.1851 18.1778 10.1488C18.0108 10.1198 17.8511 10.0762 17.6914 10.0254H17.6841C17.8438 10.0109 18.0035 9.99637 18.1632 9.96735C18.3302 9.9383 18.4899 9.90202 18.6496 9.85845C18.8093 9.8149 18.969 9.76408 19.1215 9.70601C19.2812 9.64793 19.4336 9.57534 19.5788 9.50274C19.7313 9.43014 19.8692 9.35029 20.0144 9.26318C20.1523 9.1688 20.2903 9.07443 20.4209 8.97279C20.5516 8.87116 20.675 8.76227 20.7912 8.64612C20.9146 8.53722 21.0235 8.41381 21.1324 8.2904C21.2413 8.15973 21.3429 8.02906 21.4373 7.89839C21.4518 7.87661 21.4663 7.84757 21.4808 7.82579C21.5534 7.70964 21.626 7.59349 21.6914 7.47734C21.7712 7.33215 21.8438 7.18695 21.9091 7.03451C21.9745 6.88206 22.0326 6.7296 22.0834 6.5699C22.1342 6.41745 22.1705 6.25774 22.2068 6.09803C22.2358 5.93106 22.2649 5.77135 22.2794 5.61164C22.2939 5.44467 22.3084 5.2777 22.3084 5.118C22.3084 5.00184 22.3011 4.88569 22.2939 4.76954C22.2794 4.60257 22.2576 4.44286 22.2358 4.28315C22.2068 4.11618 22.1705 3.95648 22.1269 3.79676C22.0761 3.64432 22.0253 3.48461 21.9672 3.33216C21.9092 3.17971 21.8366 3.02726 21.764 2.88207C21.6841 2.73688 21.6043 2.59169 21.5172 2.45376C21.4228 2.31583 21.3284 2.18515 21.2268 2.05448C21.1179 1.93107 21.009 1.80766 20.8928 1.68425C20.8348 1.62617 20.7694 1.56084 20.7041 1.50276C20.3774 1.24868 20.0362 1.00911 19.695 0.791327C19.6442 0.762279 19.6006 0.74051 19.5498 0.71873C19.3103 0.566283 19.0852 0.486426 18.8602 0.413833L18.8602 0.413793Z" fill="#E0234E"/>
</svg>
