<svg width="32" height="20" viewBox="0 0 32 20" fill="none" xmlns="http://www.w3.org/2000/svg">
  <path d="M15.8191 19.6017C15.712 19.6001 15.6072 19.5701 15.5153 19.5149L14.5533 18.9435C14.4087 18.8639 14.481 18.835 14.5244 18.8205C14.677 18.7715 14.8228 18.7035 14.9584 18.618C14.97 18.6127 14.9828 18.6106 14.9955 18.6118C15.0082 18.6131 15.0204 18.6177 15.0307 18.6252L15.7685 19.0592C15.7828 19.0675 15.799 19.0718 15.8155 19.0718C15.832 19.0718 15.8482 19.0675 15.8625 19.0592L18.7559 17.3956C18.7669 17.3869 18.7759 17.376 18.7821 17.3635C18.7884 17.351 18.7918 17.3372 18.792 17.3232V13.9814C18.7909 13.9668 18.7864 13.9527 18.7789 13.9401C18.7714 13.9276 18.761 13.917 18.7486 13.9091L15.8553 12.2455C15.843 12.2391 15.8294 12.2358 15.8155 12.2358C15.8017 12.2358 15.788 12.2391 15.7757 12.2455L12.8824 13.9091C12.8701 13.917 12.8597 13.9276 12.8522 13.9401C12.8446 13.9527 12.8401 13.9668 12.839 13.9814V17.316C12.8382 17.332 12.8419 17.3478 12.8495 17.3619C12.8572 17.3759 12.8686 17.3876 12.8824 17.3956L13.6781 17.8512C14.1121 18.0682 14.3725 17.8151 14.3725 17.5619V14.2708C14.3715 14.2597 14.3728 14.2486 14.3763 14.2381C14.3799 14.2276 14.3856 14.218 14.3931 14.2098C14.4006 14.2016 14.4097 14.1951 14.4198 14.1906C14.43 14.1862 14.441 14.1839 14.4521 14.184H14.8137C14.8254 14.1829 14.8372 14.1843 14.8482 14.1883C14.8593 14.1923 14.8693 14.1986 14.8776 14.2069C14.8859 14.2152 14.8922 14.2252 14.8962 14.2363C14.9002 14.2473 14.9016 14.2591 14.9005 14.2708V17.5619C14.9005 18.1406 14.5895 18.4661 14.047 18.4661C13.8806 18.4661 13.7504 18.4661 13.3815 18.2852L12.622 17.8512C12.5299 17.7972 12.4534 17.7201 12.4001 17.6275C12.3469 17.5349 12.3186 17.43 12.3182 17.3232V13.9887C12.3179 13.8817 12.3458 13.7766 12.3992 13.6838C12.4525 13.5911 12.5294 13.5141 12.622 13.4607L15.5153 11.7898C15.6077 11.7404 15.7108 11.7145 15.8155 11.7145C15.9203 11.7145 16.0234 11.7404 16.1157 11.7898L19.009 13.4534C19.1027 13.5075 19.1803 13.5856 19.2337 13.6797C19.2871 13.7738 19.3144 13.8805 19.3128 13.9887V17.316C19.3132 17.4221 19.286 17.5265 19.2341 17.619C19.1821 17.7116 19.1071 17.7891 19.0163 17.844L16.1229 19.5149C16.0304 19.5676 15.9256 19.595 15.8191 19.5945V19.6017Z" fill="#25A731"/>
  <path d="M16.7089 17.3015C15.443 17.3015 15.1754 16.7229 15.1754 16.231C15.1754 16.2199 15.1776 16.2089 15.1821 16.1988C15.1865 16.1886 15.193 16.1795 15.2012 16.172C15.2094 16.1645 15.219 16.1588 15.2295 16.1553C15.24 16.1517 15.2512 16.1504 15.2622 16.1514H15.6383C15.6583 16.1513 15.6775 16.1587 15.6922 16.1721C15.7069 16.1855 15.7161 16.2039 15.7179 16.2238C15.7758 16.5999 15.9421 16.7952 16.7089 16.7952C17.3165 16.7952 17.5769 16.6505 17.5769 16.3323C17.5769 16.1442 17.5045 16.0068 16.557 15.9127C15.7613 15.8404 15.2767 15.6596 15.2767 15.0303C15.2767 14.4516 15.7685 14.0972 16.5931 14.0972C17.519 14.0972 17.9747 14.4227 18.0398 15.1098C18.0416 15.1234 18.0399 15.1371 18.0348 15.1498C18.0297 15.1625 18.0215 15.1736 18.0109 15.1822C17.9949 15.1963 17.9743 15.204 17.953 15.2039H17.5769C17.557 15.204 17.5377 15.1966 17.523 15.1832C17.5083 15.1698 17.4991 15.1514 17.4973 15.1315C17.4033 14.7337 17.1863 14.6107 16.5931 14.6107C15.9277 14.6107 15.8481 14.8422 15.8481 15.0158C15.8481 15.2256 15.9421 15.2834 16.8391 15.4064C17.736 15.5294 18.1483 15.6885 18.1483 16.3106C18.1483 16.9326 17.6275 17.3015 16.7016 17.3015H16.7089ZM20.8752 13.8006C20.8752 13.9108 20.8426 14.0185 20.7814 14.11C20.7202 14.2016 20.6332 14.273 20.5314 14.3152C20.4296 14.3573 20.3177 14.3684 20.2096 14.3469C20.1016 14.3254 20.0023 14.2723 19.9244 14.1944C19.8465 14.1166 19.7935 14.0173 19.772 13.9093C19.7505 13.8012 19.7616 13.6892 19.8037 13.5875C19.8459 13.4857 19.9172 13.3987 20.0088 13.3375C20.1004 13.2763 20.2081 13.2437 20.3183 13.2437C20.466 13.2437 20.6077 13.3023 20.7121 13.4068C20.8166 13.5112 20.8752 13.6529 20.8752 13.8006V13.8006ZM19.8481 13.8006C19.8467 13.8939 19.873 13.9855 19.9238 14.0638C19.9746 14.142 20.0475 14.2034 20.1333 14.2401C20.2191 14.2768 20.3138 14.2872 20.4055 14.2698C20.4972 14.2525 20.5816 14.2083 20.6481 14.1429C20.7146 14.0774 20.7601 13.9937 20.7788 13.9023C20.7975 13.8109 20.7887 13.716 20.7533 13.6296C20.7179 13.5433 20.6577 13.4694 20.5802 13.4175C20.5028 13.3655 20.4116 13.3377 20.3183 13.3377C20.1948 13.3377 20.0763 13.3862 19.9883 13.4728C19.9004 13.5594 19.85 13.6772 19.8481 13.8006V13.8006ZM20.1085 13.4896H20.3255C20.3978 13.4896 20.5425 13.4896 20.5425 13.6559C20.545 13.691 20.5346 13.7258 20.5133 13.7537C20.492 13.7817 20.4612 13.8009 20.4268 13.8078C20.5063 13.8078 20.5136 13.8729 20.528 13.9525C20.53 14.009 20.5397 14.065 20.557 14.1189H20.4268L20.4051 13.9236C20.3978 13.8874 20.3834 13.8657 20.3327 13.8657H20.2315V14.1189H20.1085V13.4896ZM20.2242 13.7644H20.3255C20.3375 13.7655 20.3496 13.7639 20.3609 13.76C20.3723 13.7561 20.3828 13.7499 20.3916 13.7417C20.4005 13.7336 20.4075 13.7237 20.4123 13.7126C20.4171 13.7016 20.4196 13.6897 20.4195 13.6776C20.4195 13.5908 20.3617 13.5908 20.3255 13.5908H20.2242V13.7644Z" fill="#25A731"/>
  <path fill-rule="evenodd" clip-rule="evenodd" d="M6.87163 6.54564C6.87105 6.48074 6.85336 6.41713 6.82034 6.36125C6.78732 6.30537 6.74014 6.25919 6.68357 6.22738L3.61666 4.46246C3.5654 4.43509 3.50839 4.42022 3.45029 4.41906H3.41413C3.35606 4.42049 3.29912 4.43534 3.24776 4.46246L0.188086 6.22738C0.13044 6.25979 0.0825679 6.30711 0.049482 6.36437C0.016396 6.42164 -0.000687051 6.48674 2.11576e-05 6.55287V11.2979C0.00062279 11.3312 0.0103953 11.3636 0.0282626 11.3917C0.0461299 11.4198 0.0713988 11.4424 0.101287 11.457C0.128777 11.4729 0.15996 11.4813 0.191703 11.4813C0.223446 11.4813 0.254629 11.4729 0.282119 11.457L2.1049 10.4154C2.16205 10.3825 2.20951 10.335 2.24252 10.2779C2.27553 10.2207 2.29293 10.1559 2.29297 10.0899V7.8838C2.29281 7.8196 2.30941 7.75647 2.34112 7.70065C2.37284 7.64484 2.41857 7.59826 2.4738 7.56553L3.25499 7.10984C3.30989 7.07764 3.37219 7.0602 3.43583 7.0592C3.50196 7.05857 3.56701 7.07608 3.62389 7.10984L4.39785 7.5583C4.45308 7.59103 4.49881 7.6376 4.53053 7.69342C4.56224 7.74924 4.57884 7.81237 4.57868 7.87656V10.0899C4.57945 10.1566 4.59794 10.2219 4.63226 10.2791C4.66658 10.3363 4.71549 10.3834 4.77398 10.4154L6.5823 11.457C6.61063 11.4743 6.64316 11.4834 6.67633 11.4834C6.7095 11.4834 6.74203 11.4743 6.77036 11.457C6.79841 11.4408 6.82181 11.4177 6.83828 11.3898C6.85475 11.3619 6.86375 11.3303 6.8644 11.2979L6.87163 6.54564ZM21.6058 0.0212291C21.5772 0.00633361 21.5452 -0.000943457 21.5129 9.79553e-05C21.4807 0.00113937 21.4492 0.0104642 21.4216 0.0271754C21.394 0.0438866 21.3712 0.0674218 21.3553 0.0955168C21.3394 0.123612 21.331 0.155321 21.3309 0.187594V4.88922C21.3295 4.91207 21.322 4.93413 21.3093 4.95318C21.2966 4.97223 21.2791 4.98759 21.2586 4.99772C21.2397 5.00785 21.2186 5.01315 21.1971 5.01315C21.1757 5.01315 21.1546 5.00785 21.1356 4.99772L20.3689 4.55649C20.3137 4.52544 20.2514 4.50913 20.1881 4.50913C20.1247 4.50913 20.0625 4.52544 20.0073 4.55649L16.9259 6.32864C16.8702 6.36081 16.824 6.40726 16.7922 6.46321C16.7604 6.51915 16.7442 6.58257 16.745 6.64691V10.184C16.7456 10.2489 16.7633 10.3125 16.7963 10.3684C16.8294 10.4242 16.8765 10.4704 16.9331 10.5022L19.9928 12.2744C20.0489 12.3068 20.1125 12.3238 20.1772 12.3238C20.242 12.3238 20.3056 12.3068 20.3617 12.2744L23.4286 10.5022C23.4852 10.4704 23.5323 10.4242 23.5654 10.3684C23.5984 10.3125 23.6161 10.2489 23.6167 10.184V1.35938C23.6154 1.29376 23.5966 1.22966 23.5623 1.17372C23.5279 1.11777 23.4793 1.072 23.4214 1.04112L21.6058 0.0212291ZM21.3165 9.01942C21.3165 9.03527 21.3126 9.05087 21.305 9.06478C21.2974 9.07869 21.2864 9.09046 21.2731 9.09899L20.2243 9.70658C20.21 9.71483 20.1937 9.71918 20.1772 9.71918C20.1607 9.71918 20.1445 9.71483 20.1302 9.70658L19.0814 9.09899C19.0677 9.092 19.0559 9.08174 19.0471 9.06913C19.0382 9.05652 19.0326 9.04193 19.0308 9.02665V7.80423C19.0319 7.78963 19.0364 7.77548 19.0439 7.76293C19.0514 7.75037 19.0618 7.73974 19.0742 7.7319L20.1302 7.11707C20.1445 7.10882 20.1607 7.10447 20.1772 7.10447C20.1937 7.10447 20.21 7.10882 20.2243 7.11707L21.2731 7.72467C21.2878 7.73229 21.3002 7.74367 21.3091 7.75764C21.318 7.77161 21.323 7.78768 21.3237 7.80423L21.3165 9.01942ZM31.812 7.7753C31.8685 7.74348 31.9157 7.6973 31.9487 7.64142C31.9818 7.58554 31.9994 7.52194 32 7.45703V6.59627C31.9994 6.53137 31.9818 6.46777 31.9487 6.41189C31.9157 6.356 31.8685 6.30983 31.812 6.27801L28.7668 4.50586C28.7107 4.47348 28.6471 4.45644 28.5823 4.45644C28.5175 4.45644 28.4539 4.47348 28.3979 4.50586L25.3309 6.27801C25.2752 6.31018 25.2291 6.35663 25.1973 6.41258C25.1655 6.46852 25.1492 6.53193 25.1501 6.59627V10.1406C25.1507 10.2055 25.1684 10.2691 25.2014 10.325C25.2344 10.3808 25.2816 10.427 25.3382 10.4588L28.3762 12.1948C28.4314 12.2259 28.4936 12.2422 28.557 12.2422C28.6203 12.2422 28.6826 12.2259 28.7378 12.1948L30.5823 11.1677C30.6108 11.1512 30.6345 11.1274 30.651 11.0989C30.6675 11.0703 30.6761 11.0379 30.6761 11.005C30.6761 10.972 30.6675 10.9396 30.651 10.911C30.6345 10.8825 30.6108 10.8587 30.5823 10.8422L27.5009 9.07729C27.4729 9.0611 27.4495 9.03795 27.433 9.01007C27.4165 8.98219 27.4075 8.95053 27.4069 8.91816V7.81146C27.4068 7.77893 27.4155 7.74698 27.432 7.71898C27.4486 7.69097 27.4724 7.66795 27.5009 7.65233L28.463 7.09537C28.4904 7.0795 28.5216 7.07114 28.5534 7.07114C28.5851 7.07114 28.6163 7.0795 28.6438 7.09537L29.6058 7.65233C29.6343 7.66795 29.6581 7.69097 29.6747 7.71898C29.6912 7.74698 29.6999 7.77893 29.6998 7.81146V8.67946C29.699 8.71195 29.7069 8.74407 29.7228 8.77244C29.7387 8.80081 29.7619 8.82438 29.79 8.84066C29.8181 8.85695 29.8501 8.86535 29.8826 8.86499C29.9151 8.86462 29.9469 8.8555 29.9747 8.83859L31.812 7.7753Z" fill="white"/>
  <path fill-rule="evenodd" clip-rule="evenodd" d="M28.5353 7.60893C28.5463 7.60259 28.5587 7.59924 28.5714 7.59924C28.5841 7.59924 28.5966 7.60259 28.6076 7.60893L29.2007 7.9489C29.2111 7.95482 29.2198 7.9632 29.2261 7.9733C29.2324 7.98339 29.2361 7.99489 29.2369 8.00676V8.68669C29.2373 8.6998 29.2342 8.71279 29.2278 8.72425C29.2215 8.73572 29.2121 8.74524 29.2007 8.75179L28.6148 9.09175C28.6038 9.0981 28.5914 9.10145 28.5787 9.10145C28.566 9.10145 28.5535 9.0981 28.5425 9.09175L27.9494 8.75179C27.9393 8.74436 27.9314 8.73446 27.9263 8.72305C27.9213 8.71164 27.9192 8.69912 27.9204 8.68669V8.00676C27.9204 7.99553 27.9231 7.98446 27.9281 7.97442C27.9331 7.96437 27.9404 7.95564 27.9494 7.9489L28.5353 7.60893Z" fill="#25A731"/>
  <path fill-rule="evenodd" clip-rule="evenodd" d="M11.9928 4.52752C11.9378 4.49578 11.8754 4.47906 11.8119 4.47906C11.7485 4.47906 11.6861 4.49578 11.6311 4.52752L8.57143 6.29244C8.5157 6.3246 8.46956 6.37106 8.43778 6.427C8.40599 6.48295 8.3897 6.54636 8.3906 6.6107V10.1261C8.3897 10.1904 8.40599 10.2538 8.43778 10.3098C8.46956 10.3657 8.5157 10.4122 8.57143 10.4443L11.6166 12.202C11.6716 12.2338 11.734 12.2505 11.7975 12.2505C11.861 12.2505 11.9233 12.2338 11.9783 12.202L15.0307 10.4443C15.0878 10.4131 15.1354 10.3671 15.1685 10.311C15.2016 10.255 15.219 10.1911 15.2188 10.1261V6.60347C15.219 6.53841 15.2016 6.4745 15.1685 6.41849C15.1354 6.36248 15.0878 6.31643 15.0307 6.2852L11.9928 4.52752Z" fill="url(#paint0_linear_107_115)"/>
  <path d="M15.0452 6.29242L11.9928 4.5275C11.9633 4.51112 11.9316 4.49894 11.8988 4.49133L8.46295 10.3575C8.49203 10.3915 8.52619 10.4208 8.56422 10.4443L11.6311 12.202C11.7168 12.2505 11.8181 12.2635 11.9132 12.2382L15.132 6.35028C15.1059 6.32504 15.0768 6.30317 15.0452 6.28518V6.29242Z" fill="url(#paint1_linear_107_115)"/>
  <path d="M15.0452 10.4443C15.0891 10.4195 15.1276 10.3863 15.1587 10.3466C15.1897 10.3069 15.2126 10.2615 15.226 10.2129L11.877 4.48413C11.7878 4.46666 11.6953 4.48207 11.6166 4.52753L8.58588 6.27798L11.8625 12.2527C11.9112 12.245 11.9579 12.2277 12 12.202L15.0452 10.4443Z" fill="url(#paint2_linear_107_115)"/>
  <defs>
  <linearGradient id="paint0_linear_107_115" x1="13.5" y1="5.49951" x2="10.2929" y2="11.457" gradientUnits="userSpaceOnUse">
  <stop stop-color="#256C31"/>
  <stop offset="1" stop-color="#25C131"/>
  </linearGradient>
  <linearGradient id="paint1_linear_107_115" x1="8.5" y1="9.99951" x2="15" y2="6.49951" gradientUnits="userSpaceOnUse">
  <stop stop-color="#257231"/>
  <stop offset="1" stop-color="#49A831"/>
  </linearGradient>
  <linearGradient id="paint2_linear_107_115" x1="8.28931" y1="8.36839" x2="15.3345" y2="8.36839" gradientUnits="userSpaceOnUse">
  <stop stop-color="#34DC31"/>
  <stop offset="0.494792" stop-color="#48B331"/>
  <stop offset="1" stop-color="#256A31"/>
  </linearGradient>
  </defs>
</svg>
