<svg width="26" height="26" viewBox="0 0 26 26" fill="none" xmlns="http://www.w3.org/2000/svg">
  <mask id="mask0_107_567" style="mask-type:alpha" maskUnits="userSpaceOnUse" x="0" y="0" width="26" height="26">
    <path fill-rule="evenodd" clip-rule="evenodd"
      d="M18.4371 25.7554C18.8466 25.9149 19.3135 25.9047 19.7268 25.7058L25.0798 23.1301C25.6423 22.8594 26 22.2901 26 21.6656V4.20041C26 3.57589 25.6423 3.00662 25.0798 2.73596L19.7268 0.160129C19.1844 -0.100881 18.5496 -0.0369497 18.0735 0.30916C18.0055 0.358601 17.9407 0.413805 17.8799 0.474639L7.63233 9.82374L3.16867 6.43545C2.75314 6.12004 2.17194 6.14589 1.78603 6.49694L0.354388 7.79923C-0.117663 8.22862 -0.118204 8.97125 0.353218 9.40137L4.22425 12.933L0.353218 16.4646C-0.118204 16.8947 -0.117663 17.6373 0.354388 18.0667L1.78603 19.369C2.17194 19.7201 2.75314 19.7459 3.16867 19.4305L7.63233 16.0422L17.8799 25.3913C18.042 25.5535 18.2324 25.6757 18.4371 25.7554ZM19.504 7.03067L11.7284 12.933L19.504 18.8353V7.03067Z"
      fill="white" />
  </mask>
  <g mask="url(#mask0_107_567)">
    <path
      d="M25.08 2.74003L19.7228 0.160654C19.1027 -0.137908 18.3616 -0.0119678 17.875 0.474679L0.337626 16.4646C-0.134085 16.8947 -0.133543 17.6374 0.338796 18.0668L1.7713 19.3691C2.15746 19.7201 2.73902 19.7459 3.15478 19.4305L24.2738 3.40919C24.9824 2.87169 26 3.37703 26 4.26636V4.20416C26 3.5799 25.6424 3.01084 25.08 2.74003Z"
      fill="#0065A9" />
    <g filter="url(#filter0_d_107_567)">
      <path
        d="M25.08 23.1259L19.7228 25.7053C19.1027 26.0039 18.3616 25.8779 17.875 25.3913L0.337626 9.40135C-0.134085 8.97126 -0.133543 8.2286 0.338796 7.79921L1.7713 6.49692C2.15746 6.14587 2.73902 6.12002 3.15478 6.43543L24.2738 22.4568C24.9824 22.9943 26 22.4889 26 21.5996V21.6618C26 22.2861 25.6424 22.8551 25.08 23.1259Z"
        fill="#007ACC" />
    </g>
    <g filter="url(#filter1_d_107_567)">
      <path
        d="M19.723 25.7058C19.1027 26.0042 18.3617 25.878 17.875 25.3913C18.4747 25.9909 19.5 25.5662 19.5 24.7182V1.14771C19.5 0.299656 18.4747 -0.125053 17.875 0.47461C18.3617 -0.0120813 19.1027 -0.138199 19.723 0.160099L25.0793 2.73594C25.6421 3.0066 26 3.57587 26 4.20039V21.6656C26 22.2901 25.6421 22.8594 25.0792 23.13L19.723 25.7058Z"
        fill="#1F9CF0" />
    </g>
    <g style="mix-blend-mode:overlay" opacity="0.25">
      <path fill-rule="evenodd" clip-rule="evenodd"
        d="M18.4213 25.7554C18.8308 25.915 19.2977 25.9047 19.711 25.7059L25.064 23.1301C25.6265 22.8595 25.9842 22.2902 25.9842 21.6656V4.20046C25.9842 3.57591 25.6265 3.00664 25.064 2.73598L19.711 0.16016C19.1686 -0.10085 18.5338 -0.036919 18.0577 0.309188C17.9897 0.358632 17.9249 0.413835 17.8641 0.47467L7.61651 9.82376L3.15286 6.43549C2.73735 6.12006 2.15614 6.14593 1.77022 6.49696L0.33858 7.79925C-0.133472 8.22866 -0.134013 8.9713 0.33741 9.40139L4.20843 12.933L0.33741 16.4646C-0.134013 16.8947 -0.133472 17.6374 0.33858 18.0668L1.77022 19.369C2.15614 19.7201 2.73735 19.7459 3.15286 19.4305L7.61651 16.0422L17.8641 25.3913C18.0262 25.5535 18.2166 25.6757 18.4213 25.7554ZM19.4881 7.03071L11.7126 12.933L19.4881 18.8353V7.03071Z"
        fill="url(#paint0_linear_107_567)" />
    </g>
  </g>
  <defs>
    <filter id="filter0_d_107_567" x="-8.34915" y="-2.11816" width="42.6825" height="36.3172"
      filterUnits="userSpaceOnUse" color-interpolation-filters="sRGB">
      <feFlood flood-opacity="0" result="BackgroundImageFix" />
      <feColorMatrix in="SourceAlpha" type="matrix" values="0 0 0 0 0 0 0 0 0 0 0 0 0 0 0 0 0 0 127 0"
        result="hardAlpha" />
      <feOffset />
      <feGaussianBlur stdDeviation="4.16667" />
      <feColorMatrix type="matrix" values="0 0 0 0 0 0 0 0 0 0 0 0 0 0 0 0 0 0 0.25 0" />
      <feBlend mode="overlay" in2="BackgroundImageFix" result="effect1_dropShadow_107_567" />
      <feBlend mode="normal" in="SourceGraphic" in2="effect1_dropShadow_107_567" result="shape" />
    </filter>
    <filter id="filter1_d_107_567" x="9.54166" y="-8.33337" width="24.7917" height="42.5327"
      filterUnits="userSpaceOnUse" color-interpolation-filters="sRGB">
      <feFlood flood-opacity="0" result="BackgroundImageFix" />
      <feColorMatrix in="SourceAlpha" type="matrix" values="0 0 0 0 0 0 0 0 0 0 0 0 0 0 0 0 0 0 127 0"
        result="hardAlpha" />
      <feOffset />
      <feGaussianBlur stdDeviation="4.16667" />
      <feColorMatrix type="matrix" values="0 0 0 0 0 0 0 0 0 0 0 0 0 0 0 0 0 0 0.25 0" />
      <feBlend mode="overlay" in2="BackgroundImageFix" result="effect1_dropShadow_107_567" />
      <feBlend mode="normal" in="SourceGraphic" in2="effect1_dropShadow_107_567" result="shape" />
    </filter>
    <linearGradient id="paint0_linear_107_567" x1="12.9842" y1="3.03702e-05" x2="12.9842" y2="25.866"
      gradientUnits="userSpaceOnUse">
      <stop stop-color="white" />
      <stop offset="1" stop-color="white" stop-opacity="0" />
    </linearGradient>
  </defs>
</svg>