<svg width="29" height="29" viewBox="0 0 29 29" fill="none" xmlns="http://www.w3.org/2000/svg">
  <path
    d="M2.83331 7.25001C2.83331 4.25847 5.25844 1.83334 8.24998 1.83334H20.75C23.7415 1.83334 26.1666 4.25847 26.1666 7.25001V19.75C26.1666 22.7416 23.7415 25.1667 20.75 25.1667H8.24998C5.25844 25.1667 2.83331 22.7416 2.83331 19.75V7.25001Z"
    fill="url(#paint0_radial_107_565)" />
  <path style="mix-blend-mode:lighten"
    d="M11.3167 9.59249C11.3083 9.81382 11.3476 10.0558 11.4128 10.2978C11.5371 10.7583 11.743 11.1802 11.9858 11.5787C12.5389 12.4851 13.236 13.261 13.9925 13.9814C14.0544 14.0406 14.1282 14.0906 14.2071 14.1288C14.2862 14.1699 14.3652 14.1699 14.4469 14.1346C14.5259 14.0994 14.5965 14.0492 14.6558 13.984C14.9183 13.7126 15.1778 13.4408 15.4263 13.1603C15.7762 12.7618 16.1094 12.3518 16.4114 11.9119C16.6854 11.5134 16.9307 11.0942 17.1112 10.6397C17.2917 10.1879 17.3794 9.7219 17.3201 9.23194C17.2213 8.42344 16.8913 7.7384 16.3013 7.20125C15.6036 6.56715 14.7911 6.31326 13.8766 6.45469C12.3893 6.68519 11.311 8.05474 11.3167 9.59239V9.59249Z"
    fill="url(#paint1_radial_107_565)" />
  <path
    d="M19.0141 20.6127C18.8269 20.6184 18.6167 20.5952 18.4065 20.5506C17.7848 20.4145 17.2567 20.1318 16.8509 19.6306C16.6041 19.325 16.3966 18.9938 16.2178 18.6455C16.0075 18.235 15.8318 17.8074 15.6786 17.3745C15.4914 16.8509 15.3325 16.3159 15.2101 15.7751C15.1422 15.4721 15.2185 15.2823 15.5536 15.178C15.9793 15.045 16.4081 14.9261 16.8452 14.8296C17.5689 14.671 18.2983 14.5693 19.0424 14.5944C19.2526 14.6028 19.4623 14.6254 19.6698 14.6622C20.2716 14.7671 20.7825 15.0445 21.1997 15.4831C21.9124 16.2305 22.1958 17.1222 22.0201 18.1386C21.7675 19.591 20.4787 20.6241 19.0141 20.6127V20.6127Z"
    fill="url(#paint2_radial_107_565)" />
  <path
    d="M9.64 20.6127C9.82721 20.6184 10.0374 20.5952 10.2475 20.5506C10.8693 20.4145 11.3973 20.1318 11.8032 19.6306C12.05 19.325 12.2574 18.9938 12.4363 18.6455C12.6465 18.235 12.8222 17.8074 12.9754 17.3745C13.1626 16.8509 13.3216 16.3159 13.444 15.7751C13.5119 15.4721 13.4355 15.2823 13.1004 15.178C12.6748 15.045 12.246 14.9261 11.8089 14.8296C11.0852 14.671 10.3557 14.5693 9.6117 14.5944C9.40151 14.6028 9.19176 14.6254 8.98427 14.6622C8.38243 14.7671 7.8716 15.0445 7.45437 15.4831C6.74169 16.2305 6.45823 17.1222 6.63397 18.1386C6.88653 19.591 8.1754 20.6241 9.64 20.6127V20.6127Z"
    fill="url(#paint3_radial_107_565)" />
  <g filter="url(#filter0_d_107_565)">
    <path fill-rule="evenodd" clip-rule="evenodd"
      d="M2 6.60345C2 3.50875 4.50875 1 7.60345 1H21.3966C24.4913 1 27 3.50875 27 6.60345V20.3966C27 23.4913 24.4913 26 21.3966 26H7.60345C4.50875 26 2 23.4913 2 20.3966V6.60345ZM20.75 1.83333H8.25C5.25846 1.83333 2.83333 4.25846 2.83333 7.25V19.75C2.83333 22.7415 5.25846 25.1667 8.25 25.1667H20.75C23.7415 25.1667 26.1667 22.7415 26.1667 19.75V7.25C26.1667 4.25846 23.7415 1.83333 20.75 1.83333Z"
      fill="#F8F9F9" />
  </g>
  <defs>
    <filter id="filter0_d_107_565" x="0" y="0" width="29" height="29" filterUnits="userSpaceOnUse"
      color-interpolation-filters="sRGB">
      <feFlood flood-opacity="0" result="BackgroundImageFix" />
      <feColorMatrix in="SourceAlpha" type="matrix" values="0 0 0 0 0 0 0 0 0 0 0 0 0 0 0 0 0 0 127 0"
        result="hardAlpha" />
      <feOffset dy="1" />
      <feGaussianBlur stdDeviation="1" />
      <feComposite in2="hardAlpha" operator="out" />
      <feColorMatrix type="matrix" values="0 0 0 0 0 0 0 0 0 0 0 0 0 0 0 0 0 0 0.25 0" />
      <feBlend mode="normal" in2="BackgroundImageFix" result="effect1_dropShadow_107_565" />
      <feBlend mode="normal" in="SourceGraphic" in2="effect1_dropShadow_107_565" result="shape" />
    </filter>
    <radialGradient id="paint0_radial_107_565" cx="0" cy="0" r="1" gradientUnits="userSpaceOnUse"
      gradientTransform="translate(14.5 10.7917) rotate(90) scale(14.375)">
      <stop stop-color="#294C68" />
      <stop offset="1" stop-color="#1D3549" />
    </radialGradient>
    <radialGradient id="paint1_radial_107_565" cx="0" cy="0" r="1" gradientUnits="userSpaceOnUse"
      gradientTransform="translate(14.3853 13.759) rotate(4.82254) scale(3.19885 5.91309)">
      <stop stop-color="white" />
      <stop offset="1" stop-color="#009BD8" />
    </radialGradient>
    <radialGradient id="paint2_radial_107_565" cx="0" cy="0" r="1" gradientUnits="userSpaceOnUse"
      gradientTransform="translate(15.2209 15.59) rotate(21.7759) scale(7.05412 3.76956)">
      <stop stop-color="white" />
      <stop offset="1" stop-color="#FF3044" />
    </radialGradient>
    <radialGradient id="paint3_radial_107_565" cx="0" cy="0" r="1" gradientUnits="userSpaceOnUse"
      gradientTransform="translate(13.3958 15.3344) rotate(146.321) scale(7.1287 3.24036)">
      <stop stop-color="white" />
      <stop offset="1" stop-color="#FCFF7C" />
    </radialGradient>
  </defs>
</svg>