<svg width="26" height="26" viewBox="0 0 26 26" fill="none" xmlns="http://www.w3.org/2000/svg">
  <path d="M23.4609 0H2.53906C1.13678 0 0 1.13678 0 2.53906V23.4609C0 24.8632 1.13678 26 2.53906 26H23.4609C24.8632 26 26 24.8632 26 23.4609V2.53906C26 1.13678 24.8632 0 23.4609 0Z" fill="#F7DF1E"/>
  <path d="M17.4654 20.3126C17.9891 21.1677 18.6705 21.7963 19.8755 21.7963C20.8879 21.7963 21.5346 21.2903 21.5346 20.5912C21.5346 19.7534 20.8701 19.4567 19.7559 18.9693L19.1451 18.7072C17.382 17.9561 16.2108 17.0152 16.2108 15.0259C16.2108 13.1936 17.6069 11.7986 19.7889 11.7986C21.3423 11.7986 22.459 12.3393 23.2638 13.7548L21.3613 14.9764C20.9424 14.2253 20.4905 13.9294 19.7889 13.9294C19.0733 13.9294 18.6197 14.3834 18.6197 14.9764C18.6197 15.7094 19.0737 16.0061 20.1219 16.4601L20.7327 16.7217C22.8086 17.6119 23.9806 18.5194 23.9806 20.5598C23.9806 22.7595 22.2527 23.9646 19.9321 23.9646C17.6631 23.9646 16.1972 22.8833 15.4799 21.4661L17.4654 20.3126ZM8.83462 20.5243C9.21843 21.2053 9.56757 21.781 10.407 21.781C11.2097 21.781 11.7161 21.4669 11.7161 20.2458V11.9381H14.1593V20.2788C14.1593 22.8086 12.676 23.96 10.511 23.96C8.55481 23.96 7.42195 22.9477 6.84583 21.7284L8.83462 20.5243Z" fill="black"/>
</svg>
