<svg width="37" height="11" viewBox="0 0 37 11" fill="none" xmlns="http://www.w3.org/2000/svg">
  <path d="M4.42603 4.13504C3.89713 1.72016 2.79476 1.07729 2.51356 0.622848C2.3976 0.422655 2.29488 0.214563 2.2061 0C2.19124 0.214529 2.16395 0.349682 1.98777 0.512366C1.63401 0.838807 0.131601 2.10596 0.00516215 4.84978C-0.11264 7.40803 1.82229 8.98553 2.07793 9.14858C2.2745 9.24869 2.5139 9.15072 2.63067 9.05883C3.56342 8.3963 4.83782 6.63001 4.42707 4.13504" fill="#10AA50"/>
  <path d="M2.28626 7.78632C2.23755 8.41953 2.20265 8.78745 2.07898 9.14929C2.07898 9.14929 2.16016 9.75211 2.21716 10.3907H2.41891C2.46704 9.94101 2.54052 9.49463 2.63897 9.05382C2.3778 8.92082 2.29627 8.34195 2.28626 7.78632Z" fill="#B8C4C2"/>
  <path d="M2.63866 9.05419C2.37473 8.92798 2.29838 8.33695 2.28664 7.78632C2.35191 6.87803 2.37093 5.96681 2.34364 5.05645C2.32982 4.57876 2.3502 0.632149 2.22998 0.0543518C2.31222 0.250046 2.40697 0.439848 2.5136 0.622495C2.79481 1.0773 3.89752 1.72017 4.42608 4.13505C4.83787 6.62572 3.57037 8.38736 2.63866 9.05419Z" fill="#12924F"/>
  <path d="M28.8969 7.64038C29.052 7.76874 29.3619 7.82166 29.6351 7.82166C29.9892 7.82166 30.3364 7.75372 30.6757 7.43658C31.0211 7.11157 31.2588 6.61422 31.2588 5.8201C31.2588 5.0571 30.9783 4.43782 30.4028 4.07527C30.078 3.86396 29.6573 3.78065 29.1774 3.78065C29.0392 3.78065 28.8969 3.78816 28.8161 3.82606C28.7829 3.85313 28.7594 3.89088 28.7494 3.93332C28.7349 4.06919 28.7349 5.10393 28.7349 5.7157C28.7349 6.34284 28.7349 7.2174 28.7494 7.32466C28.757 7.41548 28.8012 7.57495 28.8969 7.64181M27.4238 3.44098C27.5492 3.44098 28.026 3.4635 28.2478 3.4635C28.6623 3.4635 28.9487 3.44098 29.7236 3.44098C30.373 3.44098 30.9196 3.62226 31.3103 3.96943C31.7829 4.39277 32.0358 4.98165 32.0358 5.69925C32.0358 6.71898 31.5867 7.30822 31.1351 7.64038C30.686 7.98792 30.1019 8.18421 29.2696 8.18421C28.8268 8.18421 28.0664 8.16919 27.4318 8.16168H27.4187C27.389 8.10126 27.4729 7.86563 27.5247 7.85956C27.6974 7.83953 27.743 7.83238 27.8225 7.79842C27.9565 7.74157 27.988 7.67077 28.0028 7.42156C28.0249 6.95317 28.0177 6.39432 28.0177 5.75968C28.0177 5.30666 28.0249 4.42281 28.0104 4.1432C27.988 3.90937 27.8926 3.84894 27.6995 3.80353C27.5626 3.77342 27.4242 3.75075 27.285 3.7356C27.2705 3.69019 27.3838 3.48531 27.4207 3.44098" fill="white"/>
  <path d="M33.8648 3.82429C33.8354 3.83179 33.7985 3.90759 33.7985 3.94514C33.7909 4.21723 33.7836 4.92696 33.7836 5.41788C33.7855 5.42726 33.79 5.43586 33.7966 5.44261C33.8031 5.44935 33.8115 5.45393 33.8206 5.45578C33.9163 5.46328 34.1526 5.47115 34.3519 5.47115C34.6324 5.47115 34.7948 5.43325 34.8832 5.38784C35.1195 5.26699 35.2287 5.00241 35.2287 4.71565C35.2287 4.05848 34.7858 3.80927 34.1291 3.80927C34.0403 3.80811 33.9515 3.81312 33.8634 3.82429M35.5389 6.84556C35.5389 6.18088 35.0663 5.80331 34.2027 5.80331C34.166 5.80331 33.8917 5.7958 33.8265 5.81082C33.8043 5.81833 33.7822 5.83335 33.7822 5.84872C33.7822 6.32462 33.7746 7.08727 33.7971 7.3894C33.8119 7.51775 33.9007 7.69903 34.0109 7.75195C34.1291 7.81988 34.3947 7.8349 34.5792 7.8349C35.0884 7.8349 35.5389 7.54064 35.5389 6.84556M32.5313 3.45422C32.598 3.45422 32.7942 3.47675 33.2962 3.47675C33.7684 3.47675 34.1522 3.46173 34.6089 3.46173C35.1772 3.46173 35.9593 3.6734 35.9593 4.54939C35.9593 4.97845 35.6643 5.32742 35.2805 5.49368C35.2584 5.50118 35.2584 5.5162 35.2805 5.52371C35.8267 5.66673 36.3062 6.01462 36.3062 6.67931C36.3062 7.32897 35.9151 7.73693 35.3468 7.99365C35.0014 8.1524 34.572 8.20496 34.1377 8.20496C33.8057 8.20496 32.9158 8.16921 32.4211 8.17493C32.3693 8.1524 32.4684 7.91034 32.5127 7.8728C32.626 7.86919 32.7385 7.85094 32.8474 7.81845C33.0243 7.7734 33.0454 7.71441 33.0675 7.44231C33.0823 7.20812 33.0823 6.36967 33.0823 5.77292C33.0823 4.957 33.0899 4.40602 33.0823 4.13392C33.0751 3.92261 33.0011 3.85432 32.8609 3.81678C32.7503 3.79389 32.5659 3.77137 32.4184 3.74884C32.3814 3.71094 32.495 3.48426 32.5317 3.45422" fill="white"/>
  <path d="M6.06049 8.18106C6.04148 8.13271 6.03379 8.0804 6.03803 8.02839C6.03638 7.99293 6.04414 7.95769 6.06049 7.92649C6.15594 7.91224 6.25053 7.8923 6.34377 7.86677C6.47435 7.83317 6.52341 7.75951 6.53101 7.58717C6.55242 7.17993 6.55381 6.41585 6.54621 5.87881V5.86308C6.54621 5.80515 6.54621 5.72649 6.47711 5.67107C6.35568 5.59222 6.22384 5.532 6.08571 5.4923C6.02387 5.47335 5.98967 5.43974 5.9914 5.40041C5.99312 5.36108 6.03216 5.3146 6.11265 5.29815C6.32649 5.27563 6.88683 5.13725 7.10689 5.03214C7.12955 5.0627 7.14006 5.10108 7.13625 5.1394C7.13625 5.163 7.1328 5.18803 7.13038 5.21377C7.12416 5.28957 7.11725 5.37574 7.11725 5.46155C7.11861 5.47197 7.12275 5.4818 7.1292 5.48992C7.13566 5.49804 7.14418 5.50414 7.1538 5.50752C7.16342 5.5109 7.17377 5.51144 7.18367 5.50906C7.19357 5.50669 7.20263 5.5015 7.20984 5.49409C7.62888 5.15406 8.0044 5.03285 8.19682 5.03285C8.51361 5.03285 8.76027 5.18946 8.95131 5.51196C8.95569 5.51975 8.96193 5.52624 8.96943 5.53081C8.97693 5.53538 8.98544 5.53788 8.99415 5.53807C9.00206 5.53799 9.00984 5.53593 9.01681 5.53207C9.02379 5.52821 9.02976 5.52266 9.03422 5.5159C9.41941 5.21341 9.80115 5.03285 10.0568 5.03285C10.6607 5.03285 11.0217 5.50088 11.0217 6.28427C11.0217 6.50952 11.0196 6.7952 11.0175 7.06158C11.0158 7.29541 11.0141 7.51459 11.0141 7.66619C11.0141 7.70195 11.0617 7.80492 11.1332 7.8253C11.2217 7.86999 11.3492 7.89288 11.5105 7.92148H11.5167C11.5288 7.96653 11.5032 8.14137 11.4787 8.17713C11.4386 8.17713 11.3834 8.17355 11.3143 8.16998C11.1889 8.16354 11.0168 8.1546 10.8168 8.1546C10.4154 8.1546 10.2057 8.16247 10.0053 8.17605C9.99011 8.12421 9.98493 7.95688 10.0032 7.92184C10.0862 7.90841 10.1683 7.8899 10.2492 7.86642C10.377 7.8228 10.414 7.76273 10.4219 7.58717C10.425 7.46239 10.4482 6.36293 10.4071 6.10192C10.3691 5.83125 10.1722 5.51447 9.74138 5.51447C9.58143 5.51447 9.32337 5.58347 9.0774 5.77655C9.06215 5.79445 9.05357 5.8174 9.05322 5.84127V5.84663C9.08224 5.9875 9.08224 6.15198 9.08224 6.40047C9.08224 6.54349 9.08224 6.69259 9.08051 6.84168C9.07879 7.14489 9.0774 7.43092 9.08224 7.64724C9.08224 7.79455 9.16826 7.82995 9.2377 7.85819C9.27535 7.86677 9.30506 7.87428 9.33512 7.88143C9.39281 7.89609 9.45292 7.91111 9.5424 7.92577C9.55564 7.98858 9.55446 8.05373 9.53894 8.11599C9.53528 8.13935 9.52641 8.16151 9.51303 8.1807C9.28986 8.17284 9.06082 8.16604 8.73021 8.16604C8.63003 8.16604 8.46663 8.17033 8.32222 8.17427C8.20511 8.17748 8.09457 8.1807 8.03169 8.18106C8.01469 8.13953 8.00712 8.09451 8.00958 8.04948C8.00605 8.00705 8.01407 7.96444 8.03273 7.92649L8.12151 7.90968C8.19889 7.89538 8.26591 7.88322 8.32879 7.86677C8.43795 7.83102 8.47906 7.76952 8.48701 7.62543C8.50843 7.28934 8.52501 6.32074 8.47906 6.07832C8.40099 5.68931 8.18715 5.49194 7.84307 5.49194C7.64167 5.49194 7.38706 5.59241 7.17909 5.75367C7.15909 5.77383 7.14333 5.79805 7.13281 5.82482C7.12228 5.85158 7.11722 5.88031 7.11795 5.9092C7.11795 6.02469 7.11795 6.16199 7.11795 6.3093C7.11795 6.79556 7.11484 7.40089 7.12624 7.66261C7.13315 7.74342 7.16078 7.83924 7.30691 7.87428C7.33904 7.88394 7.39431 7.89323 7.45857 7.90432C7.49553 7.91075 7.53595 7.91755 7.57775 7.92541C7.59104 8.01103 7.58429 8.0987 7.55806 8.18106C7.49381 8.18106 7.4147 8.17677 7.32419 8.17284C7.186 8.1664 7.01327 8.15853 6.81808 8.15853C6.58732 8.15853 6.42668 8.1664 6.29782 8.17284C6.21111 8.17713 6.13614 8.1807 6.06118 8.18106" fill="white"/>
  <path d="M13.4687 5.35605C13.344 5.35337 13.2214 5.38909 13.1164 5.45867C12.86 5.61992 12.7294 5.94207 12.7294 6.41547C12.7294 7.30147 13.1582 7.92038 13.772 7.92038C13.9366 7.92579 14.0972 7.86695 14.2218 7.75556C14.4105 7.59645 14.5106 7.27108 14.5106 6.81556C14.5106 5.94279 14.0916 5.35605 13.468 5.35605M13.5862 8.24897C12.4773 8.24897 12.0824 7.40695 12.0824 6.61927C12.0824 6.069 12.2997 5.63887 12.7284 5.34032C13.0287 5.14792 13.3734 5.04247 13.7264 5.03497C14.5725 5.03497 15.1636 5.66462 15.1636 6.56671C15.1636 7.17955 14.9276 7.66367 14.4809 7.96615C14.2664 8.10202 13.8937 8.24897 13.5862 8.24897" fill="white"/>
  <path d="M24.7584 5.35605C24.6335 5.35312 24.5106 5.38885 24.4054 5.45867C24.1491 5.61992 24.0185 5.94207 24.0185 6.41547C24.0185 7.30147 24.4472 7.92038 25.0611 7.92038C25.2261 7.92615 25.3872 7.86729 25.5122 7.75556C25.7009 7.59645 25.8007 7.27108 25.8007 6.81556C25.8007 5.94279 25.382 5.35605 24.7584 5.35605M24.8766 8.24897C23.7677 8.24897 23.3728 7.40695 23.3728 6.61963C23.3728 6.06864 23.5901 5.63887 24.0192 5.34032C24.3193 5.1478 24.6639 5.04234 25.0169 5.03497C25.8629 5.03497 26.454 5.66497 26.454 6.56635C26.454 7.1799 26.218 7.66366 25.7713 7.96579C25.5568 8.10202 25.1841 8.24897 24.8766 8.24897" fill="white"/>
  <path d="M21.0248 5.32604C20.6831 5.32604 20.462 5.60528 20.462 6.03756C20.462 6.46984 20.6524 6.98363 21.1875 6.98363C21.2794 6.98363 21.4459 6.94144 21.5285 6.84741C21.6528 6.72906 21.7357 6.48449 21.7357 6.22635C21.7357 5.66249 21.4704 5.32604 21.0265 5.32604M20.9823 8.30942C20.8858 8.30833 20.7906 8.33295 20.7059 8.38093C20.4354 8.5597 20.31 8.73848 20.31 8.94621C20.31 9.14072 20.3829 9.29554 20.5397 9.43284C20.7298 9.59945 20.9861 9.68062 21.3229 9.68062C21.9858 9.68062 22.2829 9.31163 22.2829 8.94621C22.2829 8.69164 22.1596 8.52109 21.9057 8.42455C21.7102 8.35054 21.3834 8.30978 20.9833 8.30978M21.0275 10.0618C20.6296 10.0618 20.3428 9.97488 20.0979 9.77966C19.8595 9.58944 19.7524 9.30698 19.7524 9.11176C19.755 8.98595 19.8014 8.86534 19.883 8.77209C19.9521 8.69057 20.1128 8.53789 20.4841 8.27366C20.4899 8.27113 20.4948 8.2669 20.4982 8.26149C20.5017 8.25608 20.5035 8.24975 20.5035 8.24327C20.5036 8.23605 20.5013 8.22899 20.4971 8.22328C20.4928 8.21756 20.4868 8.21351 20.48 8.21181C20.1742 8.0906 20.082 7.89002 20.054 7.78275C20.054 7.77882 20.054 7.77274 20.0509 7.76595C20.0423 7.72376 20.034 7.68371 20.0896 7.64259C20.1324 7.61113 20.2008 7.56894 20.2741 7.52424C20.3775 7.46501 20.4766 7.39822 20.5708 7.32437C20.5759 7.31874 20.5797 7.31199 20.5818 7.30462C20.584 7.29726 20.5845 7.28948 20.5833 7.28189C20.5821 7.2743 20.5792 7.26709 20.5749 7.26082C20.5706 7.25455 20.5649 7.24938 20.5584 7.24571C20.1058 7.08839 19.8778 6.7405 19.8778 6.20883C19.8765 6.04303 19.9137 5.87934 19.9865 5.73163C20.0593 5.58393 20.1654 5.45657 20.2959 5.36036C20.4779 5.21127 20.935 5.03214 21.231 5.03214H21.2483C21.5526 5.03964 21.7243 5.10579 21.962 5.19661C22.0972 5.2472 22.2405 5.27074 22.3842 5.26597C22.636 5.26597 22.7462 5.18338 22.8409 5.0872C22.8562 5.13052 22.8644 5.17621 22.865 5.22235C22.8708 5.33229 22.842 5.44119 22.7828 5.5327C22.7314 5.60671 22.6101 5.66035 22.4992 5.66035C22.4878 5.66035 22.4767 5.66035 22.4647 5.65856C22.4063 5.65431 22.3485 5.64437 22.2919 5.62888L22.2636 5.63925C22.2546 5.65284 22.2605 5.66786 22.2677 5.68716C22.2695 5.69094 22.2709 5.69489 22.2719 5.69896C22.2921 5.79439 22.3058 5.89116 22.313 5.98858C22.313 6.54456 22.1012 6.78662 21.8722 6.96611C21.6508 7.13808 21.3878 7.24349 21.1122 7.27074V7.27074C21.1063 7.27074 21.0776 7.27325 21.0237 7.27825C20.9892 7.28147 20.9443 7.28576 20.9377 7.28576H20.9312C20.8814 7.30006 20.7515 7.36406 20.7515 7.48313C20.7515 7.58181 20.8102 7.70445 21.0911 7.72662L21.2728 7.73985C21.6432 7.76666 22.1057 7.79991 22.3234 7.87607C22.4677 7.92861 22.5924 8.02694 22.6797 8.15705C22.767 8.28717 22.8124 8.44246 22.8094 8.60082C22.8094 9.0996 22.4667 9.5687 21.8929 9.85546C21.6223 9.98923 21.326 10.058 21.0262 10.0568" fill="white"/>
  <path d="M19.33 7.915C19.1676 7.89247 19.0491 7.86959 18.9092 7.80165C18.8817 7.77222 18.8637 7.73478 18.8574 7.69439C18.8425 7.4602 18.8425 6.7805 18.8425 6.33571C18.8425 5.9728 18.7838 5.65637 18.6353 5.42932C18.458 5.17225 18.2072 5.02136 17.8825 5.02136C17.5947 5.02136 17.2109 5.22516 16.8938 5.50477C16.8862 5.51228 16.8375 5.56019 16.8385 5.48582C16.8395 5.41145 16.8506 5.26056 16.8575 5.16402C16.8606 5.13838 16.8578 5.11234 16.8494 5.088C16.841 5.06366 16.8272 5.0417 16.8091 5.02386C16.6019 5.13113 16.0205 5.27415 15.8052 5.29596C15.6484 5.32742 15.6087 5.48367 15.7762 5.53766H15.7786C15.9127 5.57594 16.0408 5.63423 16.1586 5.71071C16.225 5.76363 16.2177 5.83907 16.2177 5.8995C16.225 6.40543 16.225 7.18345 16.2029 7.60643C16.1956 7.77269 16.151 7.83312 16.0329 7.86351L16.0439 7.85958C15.954 7.88291 15.8627 7.90058 15.7707 7.91249C15.7337 7.95004 15.7337 8.16921 15.7707 8.21462C15.8446 8.21462 16.2198 8.1921 16.5307 8.1921C16.9584 8.1921 17.1798 8.21462 17.2907 8.21462C17.3353 8.1617 17.3498 7.9579 17.3204 7.91249C17.2182 7.90771 17.1168 7.8925 17.0175 7.86709C16.8997 7.83705 16.8699 7.77627 16.8627 7.64076C16.8482 7.28536 16.8482 6.53021 16.8482 6.01642C16.8482 5.8734 16.8848 5.80511 16.929 5.76613C17.0765 5.63027 17.3204 5.53981 17.5343 5.53981C17.7415 5.53981 17.8797 5.60774 17.9834 5.6982C18.1041 5.80722 18.1798 5.96003 18.1948 6.12511C18.2242 6.41115 18.2166 6.98645 18.2166 7.48379C18.2166 7.75589 18.1948 7.82418 18.0988 7.85421C18.0545 7.87674 17.9364 7.89962 17.7961 7.91464C17.7519 7.96005 17.7664 8.17136 17.7961 8.21677C17.9879 8.21677 18.2107 8.19424 18.534 8.19424C18.94 8.19424 19.1984 8.21677 19.3016 8.21677C19.3459 8.16385 19.3607 7.96648 19.3314 7.91464" fill="white"/>
</svg>
