<svg width="28" height="17" viewBox="0 0 28 17" fill="none" xmlns="http://www.w3.org/2000/svg">
  <path d="M6.60674 4.41524H11.8878V4.83594H7.09096V8.00195H11.6017V8.42266H7.09096V11.8987H11.9428V12.3194H6.60674V4.41524ZM12.3609 4.41524H12.9221L15.4086 7.89123L17.9501 4.41524L21.4069 0L15.7277 8.25657L18.6542 12.3194H18.071L15.4086 8.62192L12.7351 12.3194H12.1629L15.1115 8.25657L12.3611 4.41524H12.3609ZM18.8633 4.83594V4.41524H24.8814V4.83594H22.109V12.3192H21.6248V4.83594H18.8635H18.8633ZM0 4.41524H0.60518L8.94934 16.9289L5.50103 12.3194L0.506023 5.01302L0.48403 12.3194H0V4.41524ZM24.8329 11.7716C24.7337 11.7716 24.6596 11.6948 24.6596 11.5957C24.6596 11.4963 24.7337 11.4195 24.8327 11.4195C24.9328 11.4195 25.0058 11.4963 25.0058 11.5957C25.0058 11.6948 24.9328 11.7716 24.8327 11.7716H24.8329ZM25.3084 11.3084H25.5675C25.5711 11.4491 25.6737 11.5435 25.8242 11.5435C25.9926 11.5435 26.088 11.4421 26.088 11.2518V10.0467H26.3517V11.2529C26.3517 11.5957 26.1539 11.793 25.8265 11.793C25.5194 11.793 25.3085 11.6016 25.3085 11.3084H25.3084ZM26.6966 11.2933H26.958C26.9804 11.455 27.1381 11.5578 27.3654 11.5578C27.5772 11.5578 27.7327 11.4478 27.7327 11.2967C27.7327 11.1668 27.6339 11.0887 27.4089 11.0356L27.1899 10.9825C26.8827 10.9105 26.7424 10.7615 26.7424 10.511C26.7424 10.2073 26.9897 10.0052 27.3605 10.0052C27.7056 10.0052 27.9577 10.2073 27.9729 10.4943H27.7162C27.6915 10.3374 27.555 10.2391 27.3571 10.2391C27.1485 10.2391 27.0098 10.3396 27.0098 10.4932C27.0098 10.6149 27.0992 10.6847 27.3207 10.7366L27.5078 10.7827C27.8563 10.8642 28 11.006 28 11.2624C28 11.5885 27.7478 11.793 27.3453 11.793C26.9686 11.793 26.7153 11.598 26.6966 11.2931V11.2933Z" fill="white"/>
</svg>
