<svg width="32" height="29" viewBox="0 0 32 29" fill="none" xmlns="http://www.w3.org/2000/svg">
  <path fill-rule="evenodd" clip-rule="evenodd" d="M25.2805 8.85877C25.6265 8.95781 25.9699 9.0655 26.3107 9.18174C29.7667 10.3655 32 12.22 32 14.1373C32 16.137 29.6132 18.0922 25.9449 19.3015C25.751 19.3654 25.5521 19.4269 25.3497 19.4863C25.4219 19.7755 25.4865 20.0594 25.5417 20.3374C26.266 23.9773 25.7081 26.9691 23.9918 27.9576C22.3298 28.9148 19.6438 27.9746 16.9241 25.6461C16.6285 25.3923 16.34 25.1306 16.0591 24.8608C15.836 25.0753 15.6133 25.28 15.3913 25.4731C12.5836 27.915 9.70017 28.9283 7.98215 27.9425C6.31882 26.9878 5.79612 24.203 6.46541 20.6958C6.53855 20.3146 6.62237 19.9356 6.71677 19.5591C6.42616 19.4765 6.13763 19.3868 5.85149 19.2899C2.32257 18.0899 0 16.1107 0 14.1373C0 12.2269 2.16368 10.3849 5.55154 9.20964C5.93024 9.0783 6.32605 8.95487 6.73589 8.83905C6.64811 8.48957 6.56923 8.13793 6.49938 7.78447C5.79738 4.21517 6.29136 1.3627 7.95908 0.402085C9.69833 -0.59965 12.5949 0.476079 15.4847 3.02911C15.6644 3.18828 15.8412 3.35071 16.0149 3.51638C16.2743 3.26724 16.54 3.02466 16.8117 2.78887C19.569 0.401398 22.2992 -0.597397 23.9684 0.360529C25.7095 1.3593 26.2193 4.39342 25.4395 8.15971C25.3909 8.39369 25.3379 8.62676 25.2805 8.85877ZM8.64397 1.57927C7.63889 2.15814 7.23951 4.465 7.84098 7.52321C7.90599 7.852 7.97933 8.17899 8.0609 8.5041C9.38536 8.20552 10.8261 7.98258 12.3311 7.84379C13.2087 6.61137 14.1274 5.48055 15.057 4.48727C14.8965 4.33467 14.7363 4.18712 14.5769 4.04622C12.0818 1.84192 9.71462 0.962634 8.64397 1.57927ZM6.29361 18.0028C4.73325 17.4721 3.44463 16.7825 2.56136 16.03C1.7677 15.3537 1.36692 14.6822 1.36692 14.1373C1.36692 12.978 3.10419 11.4992 6.00159 10.4941C6.36527 10.3685 6.73254 10.2535 7.10297 10.1492C7.50348 11.4452 8.02876 12.8002 8.66265 14.1704C8.02055 15.5611 7.48777 16.9377 7.08358 18.2488C6.81829 18.1733 6.55486 18.0912 6.29361 18.0028ZM9.44697 12.5704C9.73511 12.0146 10.0363 11.4656 10.3502 10.9238C10.6646 10.3816 10.9916 9.84668 11.3312 9.3197C10.3168 9.44582 9.34314 9.61196 8.43012 9.81529C8.70827 10.7072 9.04885 11.6309 9.44697 12.5704ZM20.4656 16.728C19.9809 17.5659 19.4689 18.3878 18.9305 19.1925C17.981 19.26 16.9999 19.2948 16 19.2948C15.0043 19.2948 14.0356 19.264 13.1028 19.2038C12.5504 18.401 12.0287 17.5776 11.5388 16.7355C11.0513 15.8978 10.5959 15.042 10.1736 14.17C10.5948 13.2977 11.0488 12.4415 11.5347 11.6032C12.0205 10.7647 12.538 9.9451 13.0863 9.14567C14.038 9.0741 15.0138 9.03661 16.0002 9.03661C16.991 9.03661 17.968 9.07437 18.9194 9.14652C19.4621 9.94471 19.9764 10.7617 20.4612 11.596C20.9488 12.4325 21.4089 13.2845 21.8408 14.1507C21.4133 15.0258 20.9545 15.8854 20.4656 16.728ZM17.8985 7.72118C17.2773 6.89784 16.6458 6.1389 16.0153 5.45929C15.3749 6.14679 14.738 6.9046 14.1163 7.72036C15.3763 7.66167 16.6385 7.66194 17.8985 7.72118ZM23.2856 1.53884C24.3571 2.15377 24.774 4.63339 24.1008 7.88521C24.0566 8.09705 24.0085 8.30808 23.9569 8.51819C22.6293 8.2134 21.1876 7.98653 19.6782 7.84563C18.7989 6.59981 17.8878 5.46703 16.9732 4.48656C17.2129 4.25667 17.4583 4.03274 17.7091 3.81499C20.0716 1.76922 22.2796 0.961507 23.2856 1.53884ZM20.6712 9.32222C21.0071 9.846 21.3315 10.3769 21.6443 10.9145C21.9622 11.4607 22.2691 12.0131 22.5649 12.5714C22.9695 11.6287 23.3134 10.7091 23.5891 9.82966C22.6705 9.62097 21.6923 9.45046 20.6712 9.32222ZM25.5148 18.0104C25.3398 18.0681 25.1605 18.1237 24.9773 18.1777C24.5724 16.902 24.0256 15.5455 23.357 14.1441C23.9954 12.7758 24.5208 11.4368 24.9144 10.1692C25.2418 10.2637 25.5595 10.363 25.8655 10.468C28.8269 11.4821 30.633 12.9819 30.633 14.1373C30.633 15.3682 28.6824 16.9661 25.515 18.0104H25.5148ZM23.6526 18.5214C23.3661 17.629 23.0055 16.6905 22.5779 15.7205C22.2812 16.2896 21.9718 16.8521 21.6499 17.4075C21.3332 17.954 21.0057 18.4941 20.6674 19.0277C21.7229 18.9017 22.7246 18.732 23.6526 18.5214ZM24.2005 20.6017C24.5208 22.2112 24.5666 23.6663 24.3543 24.804C24.1637 25.826 23.7806 26.5074 23.3068 26.7804C22.2982 27.3613 20.1415 26.6063 17.8158 24.615C17.5491 24.3868 17.2804 24.1429 17.0111 23.885C17.9128 22.9036 18.8139 21.763 19.6933 20.4961C21.2404 20.3596 22.702 20.1362 24.0275 19.8314C24.0926 20.0935 24.1505 20.3504 24.2005 20.6017ZM14.1278 20.6188C14.759 21.4466 15.4052 22.2159 16.0531 22.9116C16.6794 22.2255 17.3086 21.4548 17.9317 20.6122C17.2971 20.6404 16.6523 20.6549 16 20.6549C15.3651 20.6549 14.7405 20.6428 14.1278 20.6188ZM10.9095 26.6802C9.92421 27.0265 9.13948 27.0361 8.6652 26.7642C7.65572 26.185 7.23624 23.9487 7.80854 20.9494C7.8766 20.595 7.95452 20.2425 8.04222 19.8923C9.35292 20.1808 10.8038 20.3883 12.3546 20.5134C13.2398 21.7531 14.167 22.8924 15.1014 23.8902C14.9029 24.0814 14.6996 24.2676 14.4918 24.4489C13.2502 25.5288 12.0059 26.2948 10.9095 26.6802ZM8.41128 18.5803C9.32403 18.778 10.3124 18.9357 11.3604 19.0521C11.0125 18.515 10.6775 17.9698 10.3557 17.4169C10.0404 16.8749 9.73788 16.3256 9.4485 15.7694C9.04193 16.729 8.69382 17.6725 8.41128 18.5803Z" fill="#53C1DE"/>
  <path d="M16.0001 11.2942C17.5783 11.2942 18.8575 12.5672 18.8575 14.1373C18.8575 15.7077 17.5783 16.9807 16.0001 16.9807C14.422 16.9807 13.1426 15.7077 13.1426 14.1373C13.1426 12.5672 14.422 11.2942 16.0001 11.2942Z" fill="#53C1DE"/>
</svg>
