<svg width="26" height="26" viewBox="0 0 26 26" fill="none" xmlns="http://www.w3.org/2000/svg">
  <path d="M23.4609 0H2.53906C1.13678 0 0 1.13678 0 2.53906V23.4609C0 24.8632 1.13678 26 2.53906 26H23.4609C24.8632 26 26 24.8632 26 23.4609V2.53906C26 1.13678 24.8632 0 23.4609 0Z" fill="#3178C6"/>
  <path fill-rule="evenodd" clip-rule="evenodd" d="M16.0946 20.6895V23.2317C16.5078 23.4435 16.9966 23.6024 17.5609 23.7083C18.1251 23.8142 18.7198 23.8672 19.3451 23.8672C19.9544 23.8672 20.5332 23.8089 21.0816 23.6924C21.63 23.5759 22.1108 23.3839 22.5241 23.1164C22.9373 22.849 23.2645 22.4994 23.5056 22.0678C23.7466 21.6362 23.8672 21.1026 23.8672 20.4671C23.8672 20.0063 23.7983 19.6025 23.6606 19.2556C23.5228 18.9087 23.3241 18.6002 23.0645 18.3301C22.8049 18.06 22.4936 17.8177 22.1307 17.6032C21.7677 17.3887 21.3584 17.1861 20.9028 16.9955C20.569 16.8577 20.2696 16.724 20.0047 16.5943C19.7398 16.4645 19.5146 16.3321 19.3292 16.1971C19.1437 16.062 19.0007 15.919 18.9 15.7681C18.7994 15.6171 18.749 15.4463 18.749 15.2557C18.749 15.0809 18.794 14.9233 18.8841 14.783C18.9742 14.6426 19.1014 14.5222 19.2656 14.4215C19.4299 14.3209 19.6312 14.2428 19.8696 14.1872C20.1081 14.1316 20.3729 14.1038 20.6644 14.1038C20.8763 14.1038 21.1001 14.1197 21.3359 14.1514C21.5717 14.1832 21.8088 14.2322 22.0472 14.2984C22.2857 14.3646 22.5174 14.448 22.7426 14.5486C22.9678 14.6493 23.1758 14.7658 23.3665 14.8982V12.5229C22.9797 12.3746 22.5572 12.2647 22.0989 12.1932C21.6406 12.1217 21.1147 12.0859 20.5213 12.0859C19.9173 12.0859 19.3451 12.1508 18.8047 12.2806C18.2642 12.4103 17.7887 12.6129 17.3781 12.8883C16.9674 13.1637 16.6429 13.5146 16.4045 13.9409C16.1661 14.3672 16.0469 14.877 16.0469 15.4702C16.0469 16.2275 16.2654 16.8736 16.7026 17.4086C17.1396 17.9435 17.8032 18.3963 18.6934 18.767C19.0431 18.91 19.3689 19.0503 19.6709 19.1881C19.9729 19.3258 20.2339 19.4688 20.4537 19.6171C20.6736 19.7653 20.8471 19.9269 20.9743 20.1017C21.1015 20.2764 21.1651 20.475 21.1651 20.6975C21.1651 20.8616 21.1253 21.0139 21.0458 21.1542C20.9664 21.2946 20.8458 21.4164 20.6842 21.5197C20.5226 21.623 20.3213 21.7037 20.0802 21.7619C19.8391 21.8202 19.557 21.8493 19.2338 21.8493C18.6828 21.8493 18.1371 21.7527 17.5966 21.5594C17.0562 21.3661 16.5555 21.0761 16.0946 20.6895V20.6895ZM11.8209 14.426H15.082V12.3398H5.99219V14.426H9.23741V23.7148H11.8209V14.426Z" fill="white"/>
</svg>
