<svg width="26" height="26" viewBox="0 0 26 26" fill="none" xmlns="http://www.w3.org/2000/svg">
  <path d="M21.3972 0H4.60285C2.06077 0 0 2.06585 0 4.61421V20.5191C0 23.0675 2.06077 25.1333 4.60285 25.1333H21.3972C23.9392 25.1333 26 23.0675 26 20.5191V4.61421C26 2.06585 23.9392 0 21.3972 0Z" fill="#FF2BC2"/>
  <path d="M20.8373 0.866669H5.16263C2.79002 0.866669 0.866638 2.79005 0.866638 5.16266V19.9707C0.866638 22.3433 2.79002 24.2667 5.16263 24.2667H20.8373C23.2099 24.2667 25.1333 22.3433 25.1333 19.9707V5.16266C25.1333 2.79005 23.2099 0.866669 20.8373 0.866669Z" fill="#470137"/>
  <path d="M13.6503 7.11503L10.6682 11.915L13.8589 17.1113C13.8793 17.1479 13.885 17.1909 13.875 17.2316C13.864 17.2691 13.8268 17.2933 13.7627 17.3037H11.486C11.4206 17.3103 11.3546 17.2989 11.2952 17.2706C11.2359 17.2423 11.1854 17.1983 11.1493 17.1433C10.9352 16.7265 10.7215 16.343 10.5078 15.9313C10.2941 15.52 10.067 15.1004 9.82648 14.6727C9.58613 14.2454 9.3483 13.8125 9.11301 13.3741H9.09693C8.88301 13.8017 8.66127 14.2292 8.43169 14.6567C8.20148 15.0843 7.97431 15.5092 7.75017 15.9313C7.52567 16.3538 7.29589 16.7426 7.0606 17.1594C7.04322 17.2041 7.01217 17.2421 6.97188 17.268C6.9316 17.2939 6.88414 17.3064 6.83631 17.3037H4.6396C4.63059 17.3047 4.62147 17.3037 4.61285 17.3009C4.60422 17.2981 4.59627 17.2935 4.5895 17.2875C4.58274 17.2815 4.5773 17.2741 4.57354 17.2659C4.56978 17.2576 4.56778 17.2487 4.56767 17.2396C4.56142 17.2005 4.56995 17.1605 4.59158 17.1274L7.68606 12.0753L4.67175 7.09896C4.63959 7.05642 4.63451 7.02162 4.65567 6.99475C4.66753 6.98108 4.68239 6.97034 4.69909 6.96338C4.7158 6.95642 4.73389 6.95344 4.75194 6.95465H7.01277C7.06206 6.95197 7.11133 6.9602 7.15707 6.97877C7.19532 7.00054 7.22815 7.03066 7.25313 7.0669C7.44567 7.49452 7.65938 7.79998 7.89446 8.22728C8.12954 8.65501 8.36736 9.07723 8.60794 9.49396C8.84851 9.91079 9.07033 10.333 9.27339 10.7606H9.28947C9.50317 10.3224 9.71955 9.89488 9.9386 9.47797C10.1578 9.06104 10.3823 8.64149 10.6121 8.21933C10.8419 7.79722 11.0634 7.49979 11.2775 7.08297C11.2897 7.04335 11.3118 7.00749 11.3417 6.97876C11.3812 6.95863 11.4257 6.95026 11.4699 6.95464H13.5703C13.5906 6.94967 13.6119 6.95174 13.6308 6.96051C13.6497 6.96927 13.6651 6.98421 13.6744 7.00286C13.6837 7.02152 13.6864 7.04279 13.682 7.06317C13.6776 7.08355 13.6665 7.10183 13.6503 7.11502L13.6503 7.11503Z" fill="#FF61F6"/>
  <path d="M18.0895 17.4947C17.3515 17.5059 16.6203 17.3525 15.949 17.0457C15.3237 16.7563 14.8008 16.2838 14.4497 15.6909C14.064 14.9987 13.8755 14.214 13.9047 13.4221C13.8986 12.6863 14.0866 11.9618 14.4497 11.3218C14.8238 10.6699 15.3739 10.1365 16.0371 9.78259C16.8131 9.37843 17.6797 9.17972 18.5543 9.20539C18.6079 9.20539 18.6773 9.20807 18.7628 9.21343C18.8482 9.21893 19.0303 9.22698 19.1479 9.23745V6.40081C19.1387 6.33346 19.1564 6.26519 19.1971 6.2108C19.2379 6.15641 19.2985 6.1203 19.3657 6.11029H20.9176C20.9944 6.11051 21.068 6.14112 21.1223 6.19544C21.1766 6.24975 21.2072 6.32334 21.2074 6.40015V15.5385C21.2074 15.7204 21.2154 15.9182 21.2313 16.1318C21.2474 16.3457 21.2608 16.5381 21.2715 16.7089C21.2735 16.7422 21.2654 16.7753 21.2482 16.804C21.2311 16.8326 21.2057 16.8553 21.1755 16.8693C20.6791 17.0861 20.1603 17.2475 19.6286 17.3504C19.1208 17.4441 18.6058 17.4924 18.0895 17.4947ZM19.1106 15.5065V11.1294C19.0093 11.1062 18.9065 11.0902 18.803 11.0813C18.6937 11.0703 18.584 11.0649 18.4742 11.0652C18.0851 11.0614 17.7006 11.1493 17.3519 11.3218C16.9783 11.4999 16.6669 11.7863 16.4581 12.1437C16.2494 12.5011 16.153 12.913 16.1814 13.3259C16.1737 13.6754 16.2308 14.0233 16.3498 14.352C16.4467 14.6169 16.5999 14.8577 16.7988 15.0576C16.9892 15.2415 17.2197 15.3787 17.4721 15.4583C17.7387 15.5447 18.0174 15.588 18.2977 15.5867C18.4475 15.5867 18.5865 15.5813 18.7147 15.5706C18.8484 15.5615 18.9809 15.54 19.1106 15.5065Z" fill="#FF61F6"/>
</svg>
